<mxfile host="Electron" agent="Mozilla/5.0 (Windows NT 10.0; Win64; x64) AppleWebKit/537.36 (KHTML, like Gecko) draw.io/28.2.8 Chrome/140.0.7339.240 Electron/38.4.0 Safari/537.36" version="28.2.8">
  <diagram name="PÃ¡gina-1" id="tyMVL-fgUzq8yl5xoZd6">
    <mxGraphModel dx="4259" dy="2734" grid="1" gridSize="10" guides="1" tooltips="1" connect="1" arrows="1" fold="1" page="1" pageScale="1" pageWidth="827" pageHeight="1169" math="0" shadow="0">
      <root>
        <mxCell id="0" />
        <mxCell id="1" parent="0" />
        <mxCell id="1c6_3hAnqYALxn4iklmP-1" value="CarroSeguidor" style="swimlane;fontStyle=1;align=center;verticalAlign=top;childLayout=stackLayout;horizontal=1;startSize=26;horizontalStack=0;resizeParent=1;resizeParentMax=0;resizeLast=0;collapsible=1;marginBottom=0;whiteSpace=wrap;html=1;swimlaneLine=1;" parent="1" vertex="1">
          <mxGeometry x="-420" y="-180" width="250" height="476" as="geometry">
            <mxRectangle x="-322.5" y="7" width="120" height="30" as="alternateBounds" />
          </mxGeometry>
        </mxCell>
        <mxCell id="1c6_3hAnqYALxn4iklmP-2" value="+ id: int" style="text;strokeColor=none;fillColor=none;align=left;verticalAlign=top;spacingLeft=4;spacingRight=4;overflow=hidden;rotatable=0;points=[[0,0.5],[1,0.5]];portConstraint=eastwest;whiteSpace=wrap;html=1;" parent="1c6_3hAnqYALxn4iklmP-1" vertex="1">
          <mxGeometry y="26" width="250" height="26" as="geometry" />
        </mxCell>
        <mxCell id="1c6_3hAnqYALxn4iklmP-6" value="+ estado: string" style="text;strokeColor=none;fillColor=none;align=left;verticalAlign=top;spacingLeft=4;spacingRight=4;overflow=hidden;rotatable=0;points=[[0,0.5],[1,0.5]];portConstraint=eastwest;whiteSpace=wrap;html=1;" parent="1c6_3hAnqYALxn4iklmP-1" vertex="1">
          <mxGeometry y="52" width="250" height="26" as="geometry" />
        </mxCell>
        <mxCell id="1c6_3hAnqYALxn4iklmP-7" value="+ velocidad: float" style="text;strokeColor=none;fillColor=none;align=left;verticalAlign=top;spacingLeft=4;spacingRight=4;overflow=hidden;rotatable=0;points=[[0,0.5],[1,0.5]];portConstraint=eastwest;whiteSpace=wrap;html=1;" parent="1c6_3hAnqYALxn4iklmP-1" vertex="1">
          <mxGeometry y="78" width="250" height="26" as="geometry" />
        </mxCell>
        <mxCell id="1c6_3hAnqYALxn4iklmP-8" value="+ direccion: string" style="text;strokeColor=none;fillColor=none;align=left;verticalAlign=top;spacingLeft=4;spacingRight=4;overflow=hidden;rotatable=0;points=[[0,0.5],[1,0.5]];portConstraint=eastwest;whiteSpace=wrap;html=1;" parent="1c6_3hAnqYALxn4iklmP-1" vertex="1">
          <mxGeometry y="104" width="250" height="26" as="geometry" />
        </mxCell>
        <mxCell id="1c6_3hAnqYALxn4iklmP-10" value="+ posicion: Coordenada" style="text;strokeColor=none;fillColor=none;align=left;verticalAlign=top;spacingLeft=4;spacingRight=4;overflow=hidden;rotatable=0;points=[[0,0.5],[1,0.5]];portConstraint=eastwest;whiteSpace=wrap;html=1;" parent="1c6_3hAnqYALxn4iklmP-1" vertex="1">
          <mxGeometry y="130" width="250" height="26" as="geometry" />
        </mxCell>
        <mxCell id="1c6_3hAnqYALxn4iklmP-9" value="+ destino: Nodo" style="text;strokeColor=none;fillColor=none;align=left;verticalAlign=top;spacingLeft=4;spacingRight=4;overflow=hidden;rotatable=0;points=[[0,0.5],[1,0.5]];portConstraint=eastwest;whiteSpace=wrap;html=1;" parent="1c6_3hAnqYALxn4iklmP-1" vertex="1">
          <mxGeometry y="156" width="250" height="26" as="geometry" />
        </mxCell>
        <mxCell id="1c6_3hAnqYALxn4iklmP-97" value="+ cargaActual: Carga" style="text;strokeColor=none;fillColor=none;align=left;verticalAlign=top;spacingLeft=4;spacingRight=4;overflow=hidden;rotatable=0;points=[[0,0.5],[1,0.5]];portConstraint=eastwest;whiteSpace=wrap;html=1;" parent="1c6_3hAnqYALxn4iklmP-1" vertex="1">
          <mxGeometry y="182" width="250" height="26" as="geometry" />
        </mxCell>
        <mxCell id="1c6_3hAnqYALxn4iklmP-99" value="+ rutaActual: List&amp;lt;Nodo&amp;gt;" style="text;strokeColor=none;fillColor=none;align=left;verticalAlign=top;spacingLeft=4;spacingRight=4;overflow=hidden;rotatable=0;points=[[0,0.5],[1,0.5]];portConstraint=eastwest;whiteSpace=wrap;html=1;" parent="1c6_3hAnqYALxn4iklmP-1" vertex="1">
          <mxGeometry y="208" width="250" height="26" as="geometry" />
        </mxCell>
        <mxCell id="1c6_3hAnqYALxn4iklmP-3" value="" style="line;strokeWidth=1;fillColor=none;align=left;verticalAlign=middle;spacingTop=-1;spacingLeft=3;spacingRight=3;rotatable=0;labelPosition=right;points=[];portConstraint=eastwest;strokeColor=inherit;" parent="1c6_3hAnqYALxn4iklmP-1" vertex="1">
          <mxGeometry y="234" width="250" height="8" as="geometry" />
        </mxCell>
        <mxCell id="1c6_3hAnqYALxn4iklmP-4" value="+ asignarDestino(nodo: Nodo)" style="text;strokeColor=none;fillColor=none;align=left;verticalAlign=top;spacingLeft=4;spacingRight=4;overflow=hidden;rotatable=0;points=[[0,0.5],[1,0.5]];portConstraint=eastwest;whiteSpace=wrap;html=1;" parent="1c6_3hAnqYALxn4iklmP-1" vertex="1">
          <mxGeometry y="242" width="250" height="26" as="geometry" />
        </mxCell>
        <mxCell id="1c6_3hAnqYALxn4iklmP-101" value="+ calcularRuta(mapa: Mapa)" style="text;strokeColor=none;fillColor=none;align=left;verticalAlign=top;spacingLeft=4;spacingRight=4;overflow=hidden;rotatable=0;points=[[0,0.5],[1,0.5]];portConstraint=eastwest;whiteSpace=wrap;html=1;" parent="1c6_3hAnqYALxn4iklmP-1" vertex="1">
          <mxGeometry y="268" width="250" height="26" as="geometry" />
        </mxCell>
        <mxCell id="1c6_3hAnqYALxn4iklmP-102" value="+ moverASiguienteNodo()" style="text;strokeColor=none;fillColor=none;align=left;verticalAlign=top;spacingLeft=4;spacingRight=4;overflow=hidden;rotatable=0;points=[[0,0.5],[1,0.5]];portConstraint=eastwest;whiteSpace=wrap;html=1;" parent="1c6_3hAnqYALxn4iklmP-1" vertex="1">
          <mxGeometry y="294" width="250" height="26" as="geometry" />
        </mxCell>
        <mxCell id="1c6_3hAnqYALxn4iklmP-11" value="+ detectarObstaculos()" style="text;strokeColor=none;fillColor=none;align=left;verticalAlign=top;spacingLeft=4;spacingRight=4;overflow=hidden;rotatable=0;points=[[0,0.5],[1,0.5]];portConstraint=eastwest;whiteSpace=wrap;html=1;" parent="1c6_3hAnqYALxn4iklmP-1" vertex="1">
          <mxGeometry y="320" width="250" height="26" as="geometry" />
        </mxCell>
        <mxCell id="1c6_3hAnqYALxn4iklmP-12" value="+ ajustarVelocidad()" style="text;strokeColor=none;fillColor=none;align=left;verticalAlign=top;spacingLeft=4;spacingRight=4;overflow=hidden;rotatable=0;points=[[0,0.5],[1,0.5]];portConstraint=eastwest;whiteSpace=wrap;html=1;" parent="1c6_3hAnqYALxn4iklmP-1" vertex="1">
          <mxGeometry y="346" width="250" height="26" as="geometry" />
        </mxCell>
        <mxCell id="1c6_3hAnqYALxn4iklmP-103" value="+ entregarCarga()" style="text;strokeColor=none;fillColor=none;align=left;verticalAlign=top;spacingLeft=4;spacingRight=4;overflow=hidden;rotatable=0;points=[[0,0.5],[1,0.5]];portConstraint=eastwest;whiteSpace=wrap;html=1;" parent="1c6_3hAnqYALxn4iklmP-1" vertex="1">
          <mxGeometry y="372" width="250" height="26" as="geometry" />
        </mxCell>
        <mxCell id="1c6_3hAnqYALxn4iklmP-104" value="+ transferirCarga(otroCarro: CarroSeguidor)" style="text;strokeColor=none;fillColor=none;align=left;verticalAlign=top;spacingLeft=4;spacingRight=4;overflow=hidden;rotatable=0;points=[[0,0.5],[1,0.5]];portConstraint=eastwest;whiteSpace=wrap;html=1;" parent="1c6_3hAnqYALxn4iklmP-1" vertex="1">
          <mxGeometry y="398" width="250" height="26" as="geometry" />
        </mxCell>
        <mxCell id="1c6_3hAnqYALxn4iklmP-14" value="+ comunicarDatos()" style="text;strokeColor=none;fillColor=none;align=left;verticalAlign=top;spacingLeft=4;spacingRight=4;overflow=hidden;rotatable=0;points=[[0,0.5],[1,0.5]];portConstraint=eastwest;whiteSpace=wrap;html=1;" parent="1c6_3hAnqYALxn4iklmP-1" vertex="1">
          <mxGeometry y="424" width="250" height="26" as="geometry" />
        </mxCell>
        <mxCell id="1c6_3hAnqYALxn4iklmP-13" value="+ detener()" style="text;strokeColor=none;fillColor=none;align=left;verticalAlign=top;spacingLeft=4;spacingRight=4;overflow=hidden;rotatable=0;points=[[0,0.5],[1,0.5]];portConstraint=eastwest;whiteSpace=wrap;html=1;" parent="1c6_3hAnqYALxn4iklmP-1" vertex="1">
          <mxGeometry y="450" width="250" height="26" as="geometry" />
        </mxCell>
        <mxCell id="1c6_3hAnqYALxn4iklmP-15" value="SensorLinea" style="swimlane;fontStyle=1;align=center;verticalAlign=top;childLayout=stackLayout;horizontal=1;startSize=26;horizontalStack=0;resizeParent=1;resizeParentMax=0;resizeLast=0;collapsible=1;marginBottom=0;whiteSpace=wrap;html=1;" parent="1" vertex="1">
          <mxGeometry x="-890" y="700" width="160" height="86" as="geometry">
            <mxRectangle x="-580" y="660" width="110" height="30" as="alternateBounds" />
          </mxGeometry>
        </mxCell>
        <mxCell id="1c6_3hAnqYALxn4iklmP-20" value="+ valorDetectado: float" style="text;strokeColor=none;fillColor=none;align=left;verticalAlign=top;spacingLeft=4;spacingRight=4;overflow=hidden;rotatable=0;points=[[0,0.5],[1,0.5]];portConstraint=eastwest;whiteSpace=wrap;html=1;" parent="1c6_3hAnqYALxn4iklmP-15" vertex="1">
          <mxGeometry y="26" width="160" height="26" as="geometry" />
        </mxCell>
        <mxCell id="1c6_3hAnqYALxn4iklmP-17" value="" style="line;strokeWidth=1;fillColor=none;align=left;verticalAlign=middle;spacingTop=-1;spacingLeft=3;spacingRight=3;rotatable=0;labelPosition=right;points=[];portConstraint=eastwest;strokeColor=inherit;" parent="1c6_3hAnqYALxn4iklmP-15" vertex="1">
          <mxGeometry y="52" width="160" height="8" as="geometry" />
        </mxCell>
        <mxCell id="1c6_3hAnqYALxn4iklmP-18" value="+ leerLinea(): boolean" style="text;strokeColor=none;fillColor=none;align=left;verticalAlign=top;spacingLeft=4;spacingRight=4;overflow=hidden;rotatable=0;points=[[0,0.5],[1,0.5]];portConstraint=eastwest;whiteSpace=wrap;html=1;" parent="1c6_3hAnqYALxn4iklmP-15" vertex="1">
          <mxGeometry y="60" width="160" height="26" as="geometry" />
        </mxCell>
        <mxCell id="1c6_3hAnqYALxn4iklmP-22" value="SensorObstaculo" style="swimlane;fontStyle=1;align=center;verticalAlign=top;childLayout=stackLayout;horizontal=1;startSize=26;horizontalStack=0;resizeParent=1;resizeParentMax=0;resizeLast=0;collapsible=1;marginBottom=0;whiteSpace=wrap;html=1;" parent="1" vertex="1">
          <mxGeometry x="-650" y="579" width="160" height="86" as="geometry">
            <mxRectangle x="-360" y="490" width="130" height="30" as="alternateBounds" />
          </mxGeometry>
        </mxCell>
        <mxCell id="1c6_3hAnqYALxn4iklmP-25" value="+ distancia: float" style="text;strokeColor=none;fillColor=none;align=left;verticalAlign=top;spacingLeft=4;spacingRight=4;overflow=hidden;rotatable=0;points=[[0,0.5],[1,0.5]];portConstraint=eastwest;whiteSpace=wrap;html=1;" parent="1c6_3hAnqYALxn4iklmP-22" vertex="1">
          <mxGeometry y="26" width="160" height="26" as="geometry" />
        </mxCell>
        <mxCell id="1c6_3hAnqYALxn4iklmP-24" value="" style="line;strokeWidth=1;fillColor=none;align=left;verticalAlign=middle;spacingTop=-1;spacingLeft=3;spacingRight=3;rotatable=0;labelPosition=right;points=[];portConstraint=eastwest;strokeColor=inherit;" parent="1c6_3hAnqYALxn4iklmP-22" vertex="1">
          <mxGeometry y="52" width="160" height="8" as="geometry" />
        </mxCell>
        <mxCell id="1c6_3hAnqYALxn4iklmP-27" value="+ detectarObjeto(): boolean" style="text;strokeColor=none;fillColor=none;align=left;verticalAlign=top;spacingLeft=4;spacingRight=4;overflow=hidden;rotatable=0;points=[[0,0.5],[1,0.5]];portConstraint=eastwest;whiteSpace=wrap;html=1;" parent="1c6_3hAnqYALxn4iklmP-22" vertex="1">
          <mxGeometry y="60" width="160" height="26" as="geometry" />
        </mxCell>
        <mxCell id="1c6_3hAnqYALxn4iklmP-29" value="Motor" style="swimlane;fontStyle=1;align=center;verticalAlign=top;childLayout=stackLayout;horizontal=1;startSize=26;horizontalStack=0;resizeParent=1;resizeParentMax=0;resizeLast=0;collapsible=1;marginBottom=0;whiteSpace=wrap;html=1;" parent="1" vertex="1">
          <mxGeometry x="430" y="130" width="160" height="164" as="geometry">
            <mxRectangle x="440" y="404" width="70" height="30" as="alternateBounds" />
          </mxGeometry>
        </mxCell>
        <mxCell id="1c6_3hAnqYALxn4iklmP-30" value="+ id: int" style="text;strokeColor=none;fillColor=none;align=left;verticalAlign=top;spacingLeft=4;spacingRight=4;overflow=hidden;rotatable=0;points=[[0,0.5],[1,0.5]];portConstraint=eastwest;whiteSpace=wrap;html=1;" parent="1c6_3hAnqYALxn4iklmP-29" vertex="1">
          <mxGeometry y="26" width="160" height="26" as="geometry" />
        </mxCell>
        <mxCell id="1c6_3hAnqYALxn4iklmP-33" value="+ velocidadActual: float" style="text;strokeColor=none;fillColor=none;align=left;verticalAlign=top;spacingLeft=4;spacingRight=4;overflow=hidden;rotatable=0;points=[[0,0.5],[1,0.5]];portConstraint=eastwest;whiteSpace=wrap;html=1;" parent="1c6_3hAnqYALxn4iklmP-29" vertex="1">
          <mxGeometry y="52" width="160" height="26" as="geometry" />
        </mxCell>
        <mxCell id="1c6_3hAnqYALxn4iklmP-34" value="+ sentidoGiro: string" style="text;strokeColor=none;fillColor=none;align=left;verticalAlign=top;spacingLeft=4;spacingRight=4;overflow=hidden;rotatable=0;points=[[0,0.5],[1,0.5]];portConstraint=eastwest;whiteSpace=wrap;html=1;" parent="1c6_3hAnqYALxn4iklmP-29" vertex="1">
          <mxGeometry y="78" width="160" height="26" as="geometry" />
        </mxCell>
        <mxCell id="1c6_3hAnqYALxn4iklmP-31" value="" style="line;strokeWidth=1;fillColor=none;align=left;verticalAlign=middle;spacingTop=-1;spacingLeft=3;spacingRight=3;rotatable=0;labelPosition=right;points=[];portConstraint=eastwest;strokeColor=inherit;" parent="1c6_3hAnqYALxn4iklmP-29" vertex="1">
          <mxGeometry y="104" width="160" height="8" as="geometry" />
        </mxCell>
        <mxCell id="1c6_3hAnqYALxn4iklmP-32" value="mover(velocidad: float)" style="text;strokeColor=none;fillColor=none;align=left;verticalAlign=top;spacingLeft=4;spacingRight=4;overflow=hidden;rotatable=0;points=[[0,0.5],[1,0.5]];portConstraint=eastwest;whiteSpace=wrap;html=1;" parent="1c6_3hAnqYALxn4iklmP-29" vertex="1">
          <mxGeometry y="112" width="160" height="26" as="geometry" />
        </mxCell>
        <mxCell id="1c6_3hAnqYALxn4iklmP-35" value="detener()" style="text;strokeColor=none;fillColor=none;align=left;verticalAlign=top;spacingLeft=4;spacingRight=4;overflow=hidden;rotatable=0;points=[[0,0.5],[1,0.5]];portConstraint=eastwest;whiteSpace=wrap;html=1;" parent="1c6_3hAnqYALxn4iklmP-29" vertex="1">
          <mxGeometry y="138" width="160" height="26" as="geometry" />
        </mxCell>
        <mxCell id="1c6_3hAnqYALxn4iklmP-37" value="ControlPID" style="swimlane;fontStyle=1;align=center;verticalAlign=top;childLayout=stackLayout;horizontal=1;startSize=26;horizontalStack=0;resizeParent=1;resizeParentMax=0;resizeLast=0;collapsible=1;marginBottom=0;whiteSpace=wrap;html=1;" parent="1" vertex="1">
          <mxGeometry x="20" y="920" width="190" height="138" as="geometry">
            <mxRectangle x="60" y="820" width="100" height="30" as="alternateBounds" />
          </mxGeometry>
        </mxCell>
        <mxCell id="1c6_3hAnqYALxn4iklmP-38" value="+ kp: float" style="text;strokeColor=none;fillColor=none;align=left;verticalAlign=top;spacingLeft=4;spacingRight=4;overflow=hidden;rotatable=0;points=[[0,0.5],[1,0.5]];portConstraint=eastwest;whiteSpace=wrap;html=1;" parent="1c6_3hAnqYALxn4iklmP-37" vertex="1">
          <mxGeometry y="26" width="190" height="26" as="geometry" />
        </mxCell>
        <mxCell id="1c6_3hAnqYALxn4iklmP-41" value="+ ki: float" style="text;strokeColor=none;fillColor=none;align=left;verticalAlign=top;spacingLeft=4;spacingRight=4;overflow=hidden;rotatable=0;points=[[0,0.5],[1,0.5]];portConstraint=eastwest;whiteSpace=wrap;html=1;" parent="1c6_3hAnqYALxn4iklmP-37" vertex="1">
          <mxGeometry y="52" width="190" height="26" as="geometry" />
        </mxCell>
        <mxCell id="1c6_3hAnqYALxn4iklmP-42" value="+ kd: float" style="text;strokeColor=none;fillColor=none;align=left;verticalAlign=top;spacingLeft=4;spacingRight=4;overflow=hidden;rotatable=0;points=[[0,0.5],[1,0.5]];portConstraint=eastwest;whiteSpace=wrap;html=1;" parent="1c6_3hAnqYALxn4iklmP-37" vertex="1">
          <mxGeometry y="78" width="190" height="26" as="geometry" />
        </mxCell>
        <mxCell id="1c6_3hAnqYALxn4iklmP-39" value="" style="line;strokeWidth=1;fillColor=none;align=left;verticalAlign=middle;spacingTop=-1;spacingLeft=3;spacingRight=3;rotatable=0;labelPosition=right;points=[];portConstraint=eastwest;strokeColor=inherit;" parent="1c6_3hAnqYALxn4iklmP-37" vertex="1">
          <mxGeometry y="104" width="190" height="8" as="geometry" />
        </mxCell>
        <mxCell id="1c6_3hAnqYALxn4iklmP-40" value="+ calcularSalida(error: float): float" style="text;strokeColor=none;fillColor=none;align=left;verticalAlign=top;spacingLeft=4;spacingRight=4;overflow=hidden;rotatable=0;points=[[0,0.5],[1,0.5]];portConstraint=eastwest;whiteSpace=wrap;html=1;" parent="1c6_3hAnqYALxn4iklmP-37" vertex="1">
          <mxGeometry y="112" width="190" height="26" as="geometry" />
        </mxCell>
        <mxCell id="1c6_3hAnqYALxn4iklmP-44" value="ControlPWM" style="swimlane;fontStyle=1;align=center;verticalAlign=top;childLayout=stackLayout;horizontal=1;startSize=26;horizontalStack=0;resizeParent=1;resizeParentMax=0;resizeLast=0;collapsible=1;marginBottom=0;whiteSpace=wrap;html=1;" parent="1" vertex="1">
          <mxGeometry x="320" y="1270" width="250" height="138" as="geometry">
            <mxRectangle x="320" y="1270" width="110" height="30" as="alternateBounds" />
          </mxGeometry>
        </mxCell>
        <mxCell id="1c6_3hAnqYALxn4iklmP-45" value="+ frecuencia: float" style="text;strokeColor=none;fillColor=none;align=left;verticalAlign=top;spacingLeft=4;spacingRight=4;overflow=hidden;rotatable=0;points=[[0,0.5],[1,0.5]];portConstraint=eastwest;whiteSpace=wrap;html=1;" parent="1c6_3hAnqYALxn4iklmP-44" vertex="1">
          <mxGeometry y="26" width="250" height="26" as="geometry" />
        </mxCell>
        <mxCell id="1c6_3hAnqYALxn4iklmP-48" value="+ cicloTrabajo: float" style="text;strokeColor=none;fillColor=none;align=left;verticalAlign=top;spacingLeft=4;spacingRight=4;overflow=hidden;rotatable=0;points=[[0,0.5],[1,0.5]];portConstraint=eastwest;whiteSpace=wrap;html=1;" parent="1c6_3hAnqYALxn4iklmP-44" vertex="1">
          <mxGeometry y="52" width="250" height="26" as="geometry" />
        </mxCell>
        <mxCell id="1c6_3hAnqYALxn4iklmP-46" value="" style="line;strokeWidth=1;fillColor=none;align=left;verticalAlign=middle;spacingTop=-1;spacingLeft=3;spacingRight=3;rotatable=0;labelPosition=right;points=[];portConstraint=eastwest;strokeColor=inherit;" parent="1c6_3hAnqYALxn4iklmP-44" vertex="1">
          <mxGeometry y="78" width="250" height="8" as="geometry" />
        </mxCell>
        <mxCell id="1c6_3hAnqYALxn4iklmP-47" value="+ modularVelocidad(motor: Motor, duty float)" style="text;strokeColor=none;fillColor=none;align=left;verticalAlign=top;spacingLeft=4;spacingRight=4;overflow=hidden;rotatable=0;points=[[0,0.5],[1,0.5]];portConstraint=eastwest;whiteSpace=wrap;html=1;" parent="1c6_3hAnqYALxn4iklmP-44" vertex="1">
          <mxGeometry y="86" width="250" height="26" as="geometry" />
        </mxCell>
        <mxCell id="1c6_3hAnqYALxn4iklmP-49" value="+ detenerMotor(motor: Motor)" style="text;strokeColor=none;fillColor=none;align=left;verticalAlign=top;spacingLeft=4;spacingRight=4;overflow=hidden;rotatable=0;points=[[0,0.5],[1,0.5]];portConstraint=eastwest;whiteSpace=wrap;html=1;" parent="1c6_3hAnqYALxn4iklmP-44" vertex="1">
          <mxGeometry y="112" width="250" height="26" as="geometry" />
        </mxCell>
        <mxCell id="1c6_3hAnqYALxn4iklmP-50" value="ModuloWifi" style="swimlane;fontStyle=1;align=center;verticalAlign=top;childLayout=stackLayout;horizontal=1;startSize=26;horizontalStack=0;resizeParent=1;resizeParentMax=0;resizeLast=0;collapsible=1;marginBottom=0;whiteSpace=wrap;html=1;" parent="1" vertex="1">
          <mxGeometry x="-690" y="37" width="170" height="216" as="geometry">
            <mxRectangle x="-530" y="130" width="100" height="30" as="alternateBounds" />
          </mxGeometry>
        </mxCell>
        <mxCell id="1c6_3hAnqYALxn4iklmP-51" value="+ ssid: string" style="text;strokeColor=none;fillColor=none;align=left;verticalAlign=top;spacingLeft=4;spacingRight=4;overflow=hidden;rotatable=0;points=[[0,0.5],[1,0.5]];portConstraint=eastwest;whiteSpace=wrap;html=1;" parent="1c6_3hAnqYALxn4iklmP-50" vertex="1">
          <mxGeometry y="26" width="170" height="26" as="geometry" />
        </mxCell>
        <mxCell id="1c6_3hAnqYALxn4iklmP-54" value="+ ip: string" style="text;strokeColor=none;fillColor=none;align=left;verticalAlign=top;spacingLeft=4;spacingRight=4;overflow=hidden;rotatable=0;points=[[0,0.5],[1,0.5]];portConstraint=eastwest;whiteSpace=wrap;html=1;" parent="1c6_3hAnqYALxn4iklmP-50" vertex="1">
          <mxGeometry y="52" width="170" height="26" as="geometry" />
        </mxCell>
        <mxCell id="1c6_3hAnqYALxn4iklmP-55" value="+ estadoConexion: string" style="text;strokeColor=none;fillColor=none;align=left;verticalAlign=top;spacingLeft=4;spacingRight=4;overflow=hidden;rotatable=0;points=[[0,0.5],[1,0.5]];portConstraint=eastwest;whiteSpace=wrap;html=1;" parent="1c6_3hAnqYALxn4iklmP-50" vertex="1">
          <mxGeometry y="78" width="170" height="26" as="geometry" />
        </mxCell>
        <mxCell id="1c6_3hAnqYALxn4iklmP-52" value="" style="line;strokeWidth=1;fillColor=none;align=left;verticalAlign=middle;spacingTop=-1;spacingLeft=3;spacingRight=3;rotatable=0;labelPosition=right;points=[];portConstraint=eastwest;strokeColor=inherit;" parent="1c6_3hAnqYALxn4iklmP-50" vertex="1">
          <mxGeometry y="104" width="170" height="8" as="geometry" />
        </mxCell>
        <mxCell id="1c6_3hAnqYALxn4iklmP-161" value="+ conectarRed()" style="text;strokeColor=none;fillColor=none;align=left;verticalAlign=top;spacingLeft=4;spacingRight=4;overflow=hidden;rotatable=0;points=[[0,0.5],[1,0.5]];portConstraint=eastwest;whiteSpace=wrap;html=1;" parent="1c6_3hAnqYALxn4iklmP-50" vertex="1">
          <mxGeometry y="112" width="170" height="26" as="geometry" />
        </mxCell>
        <mxCell id="1c6_3hAnqYALxn4iklmP-53" value="+ enviarDatos(datos: string)" style="text;strokeColor=none;fillColor=none;align=left;verticalAlign=top;spacingLeft=4;spacingRight=4;overflow=hidden;rotatable=0;points=[[0,0.5],[1,0.5]];portConstraint=eastwest;whiteSpace=wrap;html=1;" parent="1c6_3hAnqYALxn4iklmP-50" vertex="1">
          <mxGeometry y="138" width="170" height="26" as="geometry" />
        </mxCell>
        <mxCell id="1c6_3hAnqYALxn4iklmP-56" value="+ recibirDatos(): string" style="text;strokeColor=none;fillColor=none;align=left;verticalAlign=top;spacingLeft=4;spacingRight=4;overflow=hidden;rotatable=0;points=[[0,0.5],[1,0.5]];portConstraint=eastwest;whiteSpace=wrap;html=1;" parent="1c6_3hAnqYALxn4iklmP-50" vertex="1">
          <mxGeometry y="164" width="170" height="26" as="geometry" />
        </mxCell>
        <mxCell id="1c6_3hAnqYALxn4iklmP-162" value="+ desconectar()" style="text;strokeColor=none;fillColor=none;align=left;verticalAlign=top;spacingLeft=4;spacingRight=4;overflow=hidden;rotatable=0;points=[[0,0.5],[1,0.5]];portConstraint=eastwest;whiteSpace=wrap;html=1;" parent="1c6_3hAnqYALxn4iklmP-50" vertex="1">
          <mxGeometry y="190" width="170" height="26" as="geometry" />
        </mxCell>
        <mxCell id="1c6_3hAnqYALxn4iklmP-57" value="Grua" style="swimlane;fontStyle=1;align=center;verticalAlign=top;childLayout=stackLayout;horizontal=1;startSize=26;horizontalStack=0;resizeParent=1;resizeParentMax=0;resizeLast=0;collapsible=1;marginBottom=0;whiteSpace=wrap;html=1;" parent="1" vertex="1">
          <mxGeometry x="80" y="-140" width="250" height="242" as="geometry">
            <mxRectangle x="100" y="26" width="70" height="30" as="alternateBounds" />
          </mxGeometry>
        </mxCell>
        <mxCell id="1c6_3hAnqYALxn4iklmP-58" value="+ id: int" style="text;strokeColor=none;fillColor=none;align=left;verticalAlign=top;spacingLeft=4;spacingRight=4;overflow=hidden;rotatable=0;points=[[0,0.5],[1,0.5]];portConstraint=eastwest;whiteSpace=wrap;html=1;" parent="1c6_3hAnqYALxn4iklmP-57" vertex="1">
          <mxGeometry y="26" width="250" height="26" as="geometry" />
        </mxCell>
        <mxCell id="1c6_3hAnqYALxn4iklmP-61" value="+ estado: string" style="text;strokeColor=none;fillColor=none;align=left;verticalAlign=top;spacingLeft=4;spacingRight=4;overflow=hidden;rotatable=0;points=[[0,0.5],[1,0.5]];portConstraint=eastwest;whiteSpace=wrap;html=1;" parent="1c6_3hAnqYALxn4iklmP-57" vertex="1">
          <mxGeometry y="52" width="250" height="26" as="geometry" />
        </mxCell>
        <mxCell id="1c6_3hAnqYALxn4iklmP-62" value="+ anguloBrazo: float" style="text;strokeColor=none;fillColor=none;align=left;verticalAlign=top;spacingLeft=4;spacingRight=4;overflow=hidden;rotatable=0;points=[[0,0.5],[1,0.5]];portConstraint=eastwest;whiteSpace=wrap;html=1;" parent="1c6_3hAnqYALxn4iklmP-57" vertex="1">
          <mxGeometry y="78" width="250" height="26" as="geometry" />
        </mxCell>
        <mxCell id="1c6_3hAnqYALxn4iklmP-63" value="+ agarreActivo: boolean" style="text;strokeColor=none;fillColor=none;align=left;verticalAlign=top;spacingLeft=4;spacingRight=4;overflow=hidden;rotatable=0;points=[[0,0.5],[1,0.5]];portConstraint=eastwest;whiteSpace=wrap;html=1;" parent="1c6_3hAnqYALxn4iklmP-57" vertex="1">
          <mxGeometry y="104" width="250" height="26" as="geometry" />
        </mxCell>
        <mxCell id="1c6_3hAnqYALxn4iklmP-59" value="" style="line;strokeWidth=1;fillColor=none;align=left;verticalAlign=middle;spacingTop=-1;spacingLeft=3;spacingRight=3;rotatable=0;labelPosition=right;points=[];portConstraint=eastwest;strokeColor=inherit;" parent="1c6_3hAnqYALxn4iklmP-57" vertex="1">
          <mxGeometry y="130" width="250" height="8" as="geometry" />
        </mxCell>
        <mxCell id="1c6_3hAnqYALxn4iklmP-60" value="+ levantarCarga()" style="text;strokeColor=none;fillColor=none;align=left;verticalAlign=top;spacingLeft=4;spacingRight=4;overflow=hidden;rotatable=0;points=[[0,0.5],[1,0.5]];portConstraint=eastwest;whiteSpace=wrap;html=1;" parent="1c6_3hAnqYALxn4iklmP-57" vertex="1">
          <mxGeometry y="138" width="250" height="26" as="geometry" />
        </mxCell>
        <mxCell id="1c6_3hAnqYALxn4iklmP-64" value="+ soltarCarga()" style="text;strokeColor=none;fillColor=none;align=left;verticalAlign=top;spacingLeft=4;spacingRight=4;overflow=hidden;rotatable=0;points=[[0,0.5],[1,0.5]];portConstraint=eastwest;whiteSpace=wrap;html=1;" parent="1c6_3hAnqYALxn4iklmP-57" vertex="1">
          <mxGeometry y="164" width="250" height="26" as="geometry" />
        </mxCell>
        <mxCell id="1c6_3hAnqYALxn4iklmP-65" value="+ moverBrazo(angulo: float)" style="text;strokeColor=none;fillColor=none;align=left;verticalAlign=top;spacingLeft=4;spacingRight=4;overflow=hidden;rotatable=0;points=[[0,0.5],[1,0.5]];portConstraint=eastwest;whiteSpace=wrap;html=1;" parent="1c6_3hAnqYALxn4iklmP-57" vertex="1">
          <mxGeometry y="190" width="250" height="26" as="geometry" />
        </mxCell>
        <mxCell id="1c6_3hAnqYALxn4iklmP-66" value="+ transferirCarga(otroCarro: CarroSeguidor)" style="text;strokeColor=none;fillColor=none;align=left;verticalAlign=top;spacingLeft=4;spacingRight=4;overflow=hidden;rotatable=0;points=[[0,0.5],[1,0.5]];portConstraint=eastwest;whiteSpace=wrap;html=1;" parent="1c6_3hAnqYALxn4iklmP-57" vertex="1">
          <mxGeometry y="216" width="250" height="26" as="geometry" />
        </mxCell>
        <mxCell id="1c6_3hAnqYALxn4iklmP-67" value="ServoMotor" style="swimlane;fontStyle=1;align=center;verticalAlign=top;childLayout=stackLayout;horizontal=1;startSize=26;horizontalStack=0;resizeParent=1;resizeParentMax=0;resizeLast=0;collapsible=1;marginBottom=0;whiteSpace=wrap;html=1;" parent="1" vertex="1">
          <mxGeometry x="440" y="-75" width="160" height="112" as="geometry">
            <mxRectangle x="430" y="-34" width="100" height="30" as="alternateBounds" />
          </mxGeometry>
        </mxCell>
        <mxCell id="1c6_3hAnqYALxn4iklmP-68" value="+ id: int" style="text;strokeColor=none;fillColor=none;align=left;verticalAlign=top;spacingLeft=4;spacingRight=4;overflow=hidden;rotatable=0;points=[[0,0.5],[1,0.5]];portConstraint=eastwest;whiteSpace=wrap;html=1;" parent="1c6_3hAnqYALxn4iklmP-67" vertex="1">
          <mxGeometry y="26" width="160" height="26" as="geometry" />
        </mxCell>
        <mxCell id="1c6_3hAnqYALxn4iklmP-70" value="+ anguloActual: float" style="text;strokeColor=none;fillColor=none;align=left;verticalAlign=top;spacingLeft=4;spacingRight=4;overflow=hidden;rotatable=0;points=[[0,0.5],[1,0.5]];portConstraint=eastwest;whiteSpace=wrap;html=1;" parent="1c6_3hAnqYALxn4iklmP-67" vertex="1">
          <mxGeometry y="52" width="160" height="26" as="geometry" />
        </mxCell>
        <mxCell id="1c6_3hAnqYALxn4iklmP-69" value="" style="line;strokeWidth=1;fillColor=none;align=left;verticalAlign=middle;spacingTop=-1;spacingLeft=3;spacingRight=3;rotatable=0;labelPosition=right;points=[];portConstraint=eastwest;strokeColor=inherit;" parent="1c6_3hAnqYALxn4iklmP-67" vertex="1">
          <mxGeometry y="78" width="160" height="8" as="geometry" />
        </mxCell>
        <mxCell id="1c6_3hAnqYALxn4iklmP-71" value="+ moverA(angulo: float)" style="text;strokeColor=none;fillColor=none;align=left;verticalAlign=top;spacingLeft=4;spacingRight=4;overflow=hidden;rotatable=0;points=[[0,0.5],[1,0.5]];portConstraint=eastwest;whiteSpace=wrap;html=1;" parent="1c6_3hAnqYALxn4iklmP-67" vertex="1">
          <mxGeometry y="86" width="160" height="26" as="geometry" />
        </mxCell>
        <mxCell id="1c6_3hAnqYALxn4iklmP-72" value="SensorObjeto" style="swimlane;fontStyle=1;align=center;verticalAlign=top;childLayout=stackLayout;horizontal=1;startSize=26;horizontalStack=0;resizeParent=1;resizeParentMax=0;resizeLast=0;collapsible=1;marginBottom=0;whiteSpace=wrap;html=1;" parent="1" vertex="1">
          <mxGeometry x="190" y="189" width="160" height="86" as="geometry">
            <mxRectangle x="-30" y="270" width="110" height="30" as="alternateBounds" />
          </mxGeometry>
        </mxCell>
        <mxCell id="1c6_3hAnqYALxn4iklmP-76" value="+ objetoDetectado: boolean" style="text;strokeColor=none;fillColor=none;align=left;verticalAlign=top;spacingLeft=4;spacingRight=4;overflow=hidden;rotatable=0;points=[[0,0.5],[1,0.5]];portConstraint=eastwest;whiteSpace=wrap;html=1;" parent="1c6_3hAnqYALxn4iklmP-72" vertex="1">
          <mxGeometry y="26" width="160" height="26" as="geometry" />
        </mxCell>
        <mxCell id="1c6_3hAnqYALxn4iklmP-74" value="" style="line;strokeWidth=1;fillColor=none;align=left;verticalAlign=middle;spacingTop=-1;spacingLeft=3;spacingRight=3;rotatable=0;labelPosition=right;points=[];portConstraint=eastwest;strokeColor=inherit;" parent="1c6_3hAnqYALxn4iklmP-72" vertex="1">
          <mxGeometry y="52" width="160" height="8" as="geometry" />
        </mxCell>
        <mxCell id="1c6_3hAnqYALxn4iklmP-75" value="+ detectarObjeto(): boolean" style="text;strokeColor=none;fillColor=none;align=left;verticalAlign=top;spacingLeft=4;spacingRight=4;overflow=hidden;rotatable=0;points=[[0,0.5],[1,0.5]];portConstraint=eastwest;whiteSpace=wrap;html=1;" parent="1c6_3hAnqYALxn4iklmP-72" vertex="1">
          <mxGeometry y="60" width="160" height="26" as="geometry" />
        </mxCell>
        <mxCell id="1c6_3hAnqYALxn4iklmP-77" value="ControlMulticarro" style="swimlane;fontStyle=1;align=center;verticalAlign=top;childLayout=stackLayout;horizontal=1;startSize=26;horizontalStack=0;resizeParent=1;resizeParentMax=0;resizeLast=0;collapsible=1;marginBottom=0;whiteSpace=wrap;html=1;" parent="1" vertex="1">
          <mxGeometry x="-240" y="1190" width="380" height="190" as="geometry">
            <mxRectangle x="-100" y="980" width="130" height="30" as="alternateBounds" />
          </mxGeometry>
        </mxCell>
        <mxCell id="1c6_3hAnqYALxn4iklmP-78" value="+ listaCarros: list&amp;lt;CarroSeguidor&amp;gt;" style="text;strokeColor=none;fillColor=none;align=left;verticalAlign=top;spacingLeft=4;spacingRight=4;overflow=hidden;rotatable=0;points=[[0,0.5],[1,0.5]];portConstraint=eastwest;whiteSpace=wrap;html=1;" parent="1c6_3hAnqYALxn4iklmP-77" vertex="1">
          <mxGeometry y="26" width="380" height="26" as="geometry" />
        </mxCell>
        <mxCell id="1c6_3hAnqYALxn4iklmP-81" value="+ prioridades: Map&amp;lt;CarroSeguidor, int&amp;gt;" style="text;strokeColor=none;fillColor=none;align=left;verticalAlign=top;spacingLeft=4;spacingRight=4;overflow=hidden;rotatable=0;points=[[0,0.5],[1,0.5]];portConstraint=eastwest;whiteSpace=wrap;html=1;" parent="1c6_3hAnqYALxn4iklmP-77" vertex="1">
          <mxGeometry y="52" width="380" height="26" as="geometry" />
        </mxCell>
        <mxCell id="1c6_3hAnqYALxn4iklmP-79" value="" style="line;strokeWidth=1;fillColor=none;align=left;verticalAlign=middle;spacingTop=-1;spacingLeft=3;spacingRight=3;rotatable=0;labelPosition=right;points=[];portConstraint=eastwest;strokeColor=inherit;" parent="1c6_3hAnqYALxn4iklmP-77" vertex="1">
          <mxGeometry y="78" width="380" height="8" as="geometry" />
        </mxCell>
        <mxCell id="1c6_3hAnqYALxn4iklmP-82" value="+ coordinarMovimiento()" style="text;strokeColor=none;fillColor=none;align=left;verticalAlign=top;spacingLeft=4;spacingRight=4;overflow=hidden;rotatable=0;points=[[0,0.5],[1,0.5]];portConstraint=eastwest;whiteSpace=wrap;html=1;" parent="1c6_3hAnqYALxn4iklmP-77" vertex="1">
          <mxGeometry y="86" width="380" height="26" as="geometry" />
        </mxCell>
        <mxCell id="1c6_3hAnqYALxn4iklmP-80" value="+ asignarDestino(carro: CarroSeguidor, destino: Nodo)" style="text;strokeColor=none;fillColor=none;align=left;verticalAlign=top;spacingLeft=4;spacingRight=4;overflow=hidden;rotatable=0;points=[[0,0.5],[1,0.5]];portConstraint=eastwest;whiteSpace=wrap;html=1;" parent="1c6_3hAnqYALxn4iklmP-77" vertex="1">
          <mxGeometry y="112" width="380" height="26" as="geometry" />
        </mxCell>
        <mxCell id="1c6_3hAnqYALxn4iklmP-83" value="+ gestionarTransferencia(carroOrigen, carroDestino, carga: Carga)" style="text;strokeColor=none;fillColor=none;align=left;verticalAlign=top;spacingLeft=4;spacingRight=4;overflow=hidden;rotatable=0;points=[[0,0.5],[1,0.5]];portConstraint=eastwest;whiteSpace=wrap;html=1;" parent="1c6_3hAnqYALxn4iklmP-77" vertex="1">
          <mxGeometry y="138" width="380" height="26" as="geometry" />
        </mxCell>
        <mxCell id="1c6_3hAnqYALxn4iklmP-84" value="+ resolverConflictos()" style="text;strokeColor=none;fillColor=none;align=left;verticalAlign=top;spacingLeft=4;spacingRight=4;overflow=hidden;rotatable=0;points=[[0,0.5],[1,0.5]];portConstraint=eastwest;whiteSpace=wrap;html=1;" parent="1c6_3hAnqYALxn4iklmP-77" vertex="1">
          <mxGeometry y="164" width="380" height="26" as="geometry" />
        </mxCell>
        <mxCell id="1c6_3hAnqYALxn4iklmP-85" value="ServidorCentral" style="swimlane;fontStyle=1;align=center;verticalAlign=top;childLayout=stackLayout;horizontal=1;startSize=26;horizontalStack=0;resizeParent=1;resizeParentMax=0;resizeLast=0;collapsible=1;marginBottom=0;whiteSpace=wrap;html=1;" parent="1" vertex="1">
          <mxGeometry x="470" y="940" width="380" height="242" as="geometry">
            <mxRectangle x="185" y="840" width="120" height="30" as="alternateBounds" />
          </mxGeometry>
        </mxCell>
        <mxCell id="1c6_3hAnqYALxn4iklmP-86" value="+ ipServidor: string" style="text;strokeColor=none;fillColor=none;align=left;verticalAlign=top;spacingLeft=4;spacingRight=4;overflow=hidden;rotatable=0;points=[[0,0.5],[1,0.5]];portConstraint=eastwest;whiteSpace=wrap;html=1;" parent="1c6_3hAnqYALxn4iklmP-85" vertex="1">
          <mxGeometry y="26" width="380" height="26" as="geometry" />
        </mxCell>
        <mxCell id="1c6_3hAnqYALxn4iklmP-89" value="+ estado: string" style="text;strokeColor=none;fillColor=none;align=left;verticalAlign=top;spacingLeft=4;spacingRight=4;overflow=hidden;rotatable=0;points=[[0,0.5],[1,0.5]];portConstraint=eastwest;whiteSpace=wrap;html=1;" parent="1c6_3hAnqYALxn4iklmP-85" vertex="1">
          <mxGeometry y="52" width="380" height="26" as="geometry" />
        </mxCell>
        <mxCell id="1c6_3hAnqYALxn4iklmP-90" value="+ carrosConectados: List&amp;lt;CarroSeguidor&amp;gt;" style="text;strokeColor=none;fillColor=none;align=left;verticalAlign=top;spacingLeft=4;spacingRight=4;overflow=hidden;rotatable=0;points=[[0,0.5],[1,0.5]];portConstraint=eastwest;whiteSpace=wrap;html=1;" parent="1c6_3hAnqYALxn4iklmP-85" vertex="1">
          <mxGeometry y="78" width="380" height="26" as="geometry" />
        </mxCell>
        <mxCell id="1c6_3hAnqYALxn4iklmP-157" value="+ mapaGlobal: Mapa" style="text;strokeColor=none;fillColor=none;align=left;verticalAlign=top;spacingLeft=4;spacingRight=4;overflow=hidden;rotatable=0;points=[[0,0.5],[1,0.5]];portConstraint=eastwest;whiteSpace=wrap;html=1;" parent="1c6_3hAnqYALxn4iklmP-85" vertex="1">
          <mxGeometry y="104" width="380" height="26" as="geometry" />
        </mxCell>
        <mxCell id="1c6_3hAnqYALxn4iklmP-87" value="" style="line;strokeWidth=1;fillColor=none;align=left;verticalAlign=middle;spacingTop=-1;spacingLeft=3;spacingRight=3;rotatable=0;labelPosition=right;points=[];portConstraint=eastwest;strokeColor=inherit;" parent="1c6_3hAnqYALxn4iklmP-85" vertex="1">
          <mxGeometry y="130" width="380" height="8" as="geometry" />
        </mxCell>
        <mxCell id="1c6_3hAnqYALxn4iklmP-158" value="+ asignarTarea(carro: CarroSeguidor, carga: Carga, destino: Nodo" style="text;strokeColor=none;fillColor=none;align=left;verticalAlign=top;spacingLeft=4;spacingRight=4;overflow=hidden;rotatable=0;points=[[0,0.5],[1,0.5]];portConstraint=eastwest;whiteSpace=wrap;html=1;" parent="1c6_3hAnqYALxn4iklmP-85" vertex="1">
          <mxGeometry y="138" width="380" height="26" as="geometry" />
        </mxCell>
        <mxCell id="1c6_3hAnqYALxn4iklmP-92" value="+ monitorearRutas()" style="text;strokeColor=none;fillColor=none;align=left;verticalAlign=top;spacingLeft=4;spacingRight=4;overflow=hidden;rotatable=0;points=[[0,0.5],[1,0.5]];portConstraint=eastwest;whiteSpace=wrap;html=1;" parent="1c6_3hAnqYALxn4iklmP-85" vertex="1">
          <mxGeometry y="164" width="380" height="26" as="geometry" />
        </mxCell>
        <mxCell id="1c6_3hAnqYALxn4iklmP-159" value="+ coordinarTransferencia(carro1, carro2, carga:Carga)" style="text;strokeColor=none;fillColor=none;align=left;verticalAlign=top;spacingLeft=4;spacingRight=4;overflow=hidden;rotatable=0;points=[[0,0.5],[1,0.5]];portConstraint=eastwest;whiteSpace=wrap;html=1;" parent="1c6_3hAnqYALxn4iklmP-85" vertex="1">
          <mxGeometry y="190" width="380" height="26" as="geometry" />
        </mxCell>
        <mxCell id="1c6_3hAnqYALxn4iklmP-160" value="+ optimizarTrafico()" style="text;strokeColor=none;fillColor=none;align=left;verticalAlign=top;spacingLeft=4;spacingRight=4;overflow=hidden;rotatable=0;points=[[0,0.5],[1,0.5]];portConstraint=eastwest;whiteSpace=wrap;html=1;" parent="1c6_3hAnqYALxn4iklmP-85" vertex="1">
          <mxGeometry y="216" width="380" height="26" as="geometry" />
        </mxCell>
        <mxCell id="1c6_3hAnqYALxn4iklmP-93" value="Coordenada" style="swimlane;fontStyle=1;align=center;verticalAlign=top;childLayout=stackLayout;horizontal=1;startSize=26;horizontalStack=0;resizeParent=1;resizeParentMax=0;resizeLast=0;collapsible=1;marginBottom=0;whiteSpace=wrap;html=1;" parent="1" vertex="1">
          <mxGeometry x="210" y="-360" width="170" height="164" as="geometry">
            <mxRectangle x="-170" y="54" width="110" height="30" as="alternateBounds" />
          </mxGeometry>
        </mxCell>
        <mxCell id="1c6_3hAnqYALxn4iklmP-94" value="+ x: float" style="text;strokeColor=none;fillColor=none;align=left;verticalAlign=top;spacingLeft=4;spacingRight=4;overflow=hidden;rotatable=0;points=[[0,0.5],[1,0.5]];portConstraint=eastwest;whiteSpace=wrap;html=1;" parent="1c6_3hAnqYALxn4iklmP-93" vertex="1">
          <mxGeometry y="26" width="170" height="26" as="geometry" />
        </mxCell>
        <mxCell id="1c6_3hAnqYALxn4iklmP-105" value="+ y: float" style="text;strokeColor=none;fillColor=none;align=left;verticalAlign=top;spacingLeft=4;spacingRight=4;overflow=hidden;rotatable=0;points=[[0,0.5],[1,0.5]];portConstraint=eastwest;whiteSpace=wrap;html=1;" parent="1c6_3hAnqYALxn4iklmP-93" vertex="1">
          <mxGeometry y="52" width="170" height="26" as="geometry" />
        </mxCell>
        <mxCell id="1c6_3hAnqYALxn4iklmP-106" value="+ orientacion: float" style="text;strokeColor=none;fillColor=none;align=left;verticalAlign=top;spacingLeft=4;spacingRight=4;overflow=hidden;rotatable=0;points=[[0,0.5],[1,0.5]];portConstraint=eastwest;whiteSpace=wrap;html=1;" parent="1c6_3hAnqYALxn4iklmP-93" vertex="1">
          <mxGeometry y="78" width="170" height="26" as="geometry" />
        </mxCell>
        <mxCell id="1c6_3hAnqYALxn4iklmP-95" value="" style="line;strokeWidth=1;fillColor=none;align=left;verticalAlign=middle;spacingTop=-1;spacingLeft=3;spacingRight=3;rotatable=0;labelPosition=right;points=[];portConstraint=eastwest;strokeColor=inherit;" parent="1c6_3hAnqYALxn4iklmP-93" vertex="1">
          <mxGeometry y="104" width="170" height="8" as="geometry" />
        </mxCell>
        <mxCell id="1c6_3hAnqYALxn4iklmP-96" value="+ actualizar(x, y, orientacion)" style="text;strokeColor=none;fillColor=none;align=left;verticalAlign=top;spacingLeft=4;spacingRight=4;overflow=hidden;rotatable=0;points=[[0,0.5],[1,0.5]];portConstraint=eastwest;whiteSpace=wrap;html=1;" parent="1c6_3hAnqYALxn4iklmP-93" vertex="1">
          <mxGeometry y="112" width="170" height="26" as="geometry" />
        </mxCell>
        <mxCell id="1c6_3hAnqYALxn4iklmP-107" value="+ obtenerPosicion(): string" style="text;strokeColor=none;fillColor=none;align=left;verticalAlign=top;spacingLeft=4;spacingRight=4;overflow=hidden;rotatable=0;points=[[0,0.5],[1,0.5]];portConstraint=eastwest;whiteSpace=wrap;html=1;" parent="1c6_3hAnqYALxn4iklmP-93" vertex="1">
          <mxGeometry y="138" width="170" height="26" as="geometry" />
        </mxCell>
        <mxCell id="1c6_3hAnqYALxn4iklmP-108" value="Mapa" style="swimlane;fontStyle=1;align=center;verticalAlign=top;childLayout=stackLayout;horizontal=1;startSize=26;horizontalStack=0;resizeParent=1;resizeParentMax=0;resizeLast=0;collapsible=1;marginBottom=0;whiteSpace=wrap;html=1;" parent="1" vertex="1">
          <mxGeometry x="-512.5" y="-480" width="310" height="164" as="geometry">
            <mxRectangle x="-330" y="160" width="70" height="30" as="alternateBounds" />
          </mxGeometry>
        </mxCell>
        <mxCell id="1c6_3hAnqYALxn4iklmP-109" value="+ nodos: List&amp;lt;Nodo&amp;gt;" style="text;strokeColor=none;fillColor=none;align=left;verticalAlign=top;spacingLeft=4;spacingRight=4;overflow=hidden;rotatable=0;points=[[0,0.5],[1,0.5]];portConstraint=eastwest;whiteSpace=wrap;html=1;" parent="1c6_3hAnqYALxn4iklmP-108" vertex="1">
          <mxGeometry y="26" width="310" height="26" as="geometry" />
        </mxCell>
        <mxCell id="1c6_3hAnqYALxn4iklmP-111" value="+ trayectos: List&amp;lt;Trayecto&amp;gt;" style="text;strokeColor=none;fillColor=none;align=left;verticalAlign=top;spacingLeft=4;spacingRight=4;overflow=hidden;rotatable=0;points=[[0,0.5],[1,0.5]];portConstraint=eastwest;whiteSpace=wrap;html=1;" parent="1c6_3hAnqYALxn4iklmP-108" vertex="1">
          <mxGeometry y="52" width="310" height="26" as="geometry" />
        </mxCell>
        <mxCell id="1c6_3hAnqYALxn4iklmP-110" value="" style="line;strokeWidth=1;fillColor=none;align=left;verticalAlign=middle;spacingTop=-1;spacingLeft=3;spacingRight=3;rotatable=0;labelPosition=right;points=[];portConstraint=eastwest;strokeColor=inherit;" parent="1c6_3hAnqYALxn4iklmP-108" vertex="1">
          <mxGeometry y="78" width="310" height="8" as="geometry" />
        </mxCell>
        <mxCell id="1c6_3hAnqYALxn4iklmP-112" value="+ buscarRuta(origen: Nodo, destino: Nodo): List&amp;lt;Nodo&amp;gt;" style="text;strokeColor=none;fillColor=none;align=left;verticalAlign=top;spacingLeft=4;spacingRight=4;overflow=hidden;rotatable=0;points=[[0,0.5],[1,0.5]];portConstraint=eastwest;whiteSpace=wrap;html=1;" parent="1c6_3hAnqYALxn4iklmP-108" vertex="1">
          <mxGeometry y="86" width="310" height="26" as="geometry" />
        </mxCell>
        <mxCell id="1c6_3hAnqYALxn4iklmP-113" value="+ obtenerNodo(id: string): Nodo" style="text;strokeColor=none;fillColor=none;align=left;verticalAlign=top;spacingLeft=4;spacingRight=4;overflow=hidden;rotatable=0;points=[[0,0.5],[1,0.5]];portConstraint=eastwest;whiteSpace=wrap;html=1;" parent="1c6_3hAnqYALxn4iklmP-108" vertex="1">
          <mxGeometry y="112" width="310" height="26" as="geometry" />
        </mxCell>
        <mxCell id="1c6_3hAnqYALxn4iklmP-114" value="+ visualizarMapa()" style="text;strokeColor=none;fillColor=none;align=left;verticalAlign=top;spacingLeft=4;spacingRight=4;overflow=hidden;rotatable=0;points=[[0,0.5],[1,0.5]];portConstraint=eastwest;whiteSpace=wrap;html=1;" parent="1c6_3hAnqYALxn4iklmP-108" vertex="1">
          <mxGeometry y="138" width="310" height="26" as="geometry" />
        </mxCell>
        <mxCell id="1c6_3hAnqYALxn4iklmP-115" value="Nodo" style="swimlane;fontStyle=1;align=center;verticalAlign=top;childLayout=stackLayout;horizontal=1;startSize=26;horizontalStack=0;resizeParent=1;resizeParentMax=0;resizeLast=0;collapsible=1;marginBottom=0;whiteSpace=wrap;html=1;" parent="1" vertex="1">
          <mxGeometry x="-387.5" y="860" width="185" height="216" as="geometry">
            <mxRectangle x="-280" y="700" width="70" height="30" as="alternateBounds" />
          </mxGeometry>
        </mxCell>
        <mxCell id="1c6_3hAnqYALxn4iklmP-116" value="+ id: string" style="text;strokeColor=none;fillColor=none;align=left;verticalAlign=top;spacingLeft=4;spacingRight=4;overflow=hidden;rotatable=0;points=[[0,0.5],[1,0.5]];portConstraint=eastwest;whiteSpace=wrap;html=1;" parent="1c6_3hAnqYALxn4iklmP-115" vertex="1">
          <mxGeometry y="26" width="185" height="26" as="geometry" />
        </mxCell>
        <mxCell id="1c6_3hAnqYALxn4iklmP-119" value="+ coordenada: Coordenada" style="text;strokeColor=none;fillColor=none;align=left;verticalAlign=top;spacingLeft=4;spacingRight=4;overflow=hidden;rotatable=0;points=[[0,0.5],[1,0.5]];portConstraint=eastwest;whiteSpace=wrap;html=1;" parent="1c6_3hAnqYALxn4iklmP-115" vertex="1">
          <mxGeometry y="52" width="185" height="26" as="geometry" />
        </mxCell>
        <mxCell id="1c6_3hAnqYALxn4iklmP-120" value="+ tieneCarga: boolean" style="text;strokeColor=none;fillColor=none;align=left;verticalAlign=top;spacingLeft=4;spacingRight=4;overflow=hidden;rotatable=0;points=[[0,0.5],[1,0.5]];portConstraint=eastwest;whiteSpace=wrap;html=1;" parent="1c6_3hAnqYALxn4iklmP-115" vertex="1">
          <mxGeometry y="78" width="185" height="26" as="geometry" />
        </mxCell>
        <mxCell id="1c6_3hAnqYALxn4iklmP-121" value="+ esEstacionBase: boolean" style="text;strokeColor=none;fillColor=none;align=left;verticalAlign=top;spacingLeft=4;spacingRight=4;overflow=hidden;rotatable=0;points=[[0,0.5],[1,0.5]];portConstraint=eastwest;whiteSpace=wrap;html=1;" parent="1c6_3hAnqYALxn4iklmP-115" vertex="1">
          <mxGeometry y="104" width="185" height="26" as="geometry" />
        </mxCell>
        <mxCell id="1c6_3hAnqYALxn4iklmP-117" value="" style="line;strokeWidth=1;fillColor=none;align=left;verticalAlign=middle;spacingTop=-1;spacingLeft=3;spacingRight=3;rotatable=0;labelPosition=right;points=[];portConstraint=eastwest;strokeColor=inherit;" parent="1c6_3hAnqYALxn4iklmP-115" vertex="1">
          <mxGeometry y="130" width="185" height="8" as="geometry" />
        </mxCell>
        <mxCell id="1c6_3hAnqYALxn4iklmP-118" value="+ asignarCarga(carga: Carga)" style="text;strokeColor=none;fillColor=none;align=left;verticalAlign=top;spacingLeft=4;spacingRight=4;overflow=hidden;rotatable=0;points=[[0,0.5],[1,0.5]];portConstraint=eastwest;whiteSpace=wrap;html=1;" parent="1c6_3hAnqYALxn4iklmP-115" vertex="1">
          <mxGeometry y="138" width="185" height="26" as="geometry" />
        </mxCell>
        <mxCell id="1c6_3hAnqYALxn4iklmP-122" value="+ liberarCarga()" style="text;strokeColor=none;fillColor=none;align=left;verticalAlign=top;spacingLeft=4;spacingRight=4;overflow=hidden;rotatable=0;points=[[0,0.5],[1,0.5]];portConstraint=eastwest;whiteSpace=wrap;html=1;" parent="1c6_3hAnqYALxn4iklmP-115" vertex="1">
          <mxGeometry y="164" width="185" height="26" as="geometry" />
        </mxCell>
        <mxCell id="1c6_3hAnqYALxn4iklmP-123" value="+ esDestino(): boolean" style="text;strokeColor=none;fillColor=none;align=left;verticalAlign=top;spacingLeft=4;spacingRight=4;overflow=hidden;rotatable=0;points=[[0,0.5],[1,0.5]];portConstraint=eastwest;whiteSpace=wrap;html=1;" parent="1c6_3hAnqYALxn4iklmP-115" vertex="1">
          <mxGeometry y="190" width="185" height="26" as="geometry" />
        </mxCell>
        <mxCell id="1c6_3hAnqYALxn4iklmP-124" value="Trayecto" style="swimlane;fontStyle=1;align=center;verticalAlign=top;childLayout=stackLayout;horizontal=1;startSize=26;horizontalStack=0;resizeParent=1;resizeParentMax=0;resizeLast=0;collapsible=1;marginBottom=0;whiteSpace=wrap;html=1;" parent="1" vertex="1">
          <mxGeometry x="-780" y="-200" width="280" height="164" as="geometry">
            <mxRectangle x="-510" y="54" width="90" height="30" as="alternateBounds" />
          </mxGeometry>
        </mxCell>
        <mxCell id="1c6_3hAnqYALxn4iklmP-125" value="+ id: string" style="text;strokeColor=none;fillColor=none;align=left;verticalAlign=top;spacingLeft=4;spacingRight=4;overflow=hidden;rotatable=0;points=[[0,0.5],[1,0.5]];portConstraint=eastwest;whiteSpace=wrap;html=1;" parent="1c6_3hAnqYALxn4iklmP-124" vertex="1">
          <mxGeometry y="26" width="280" height="26" as="geometry" />
        </mxCell>
        <mxCell id="1c6_3hAnqYALxn4iklmP-128" value="+ nodoInicio: Nodo" style="text;strokeColor=none;fillColor=none;align=left;verticalAlign=top;spacingLeft=4;spacingRight=4;overflow=hidden;rotatable=0;points=[[0,0.5],[1,0.5]];portConstraint=eastwest;whiteSpace=wrap;html=1;" parent="1c6_3hAnqYALxn4iklmP-124" vertex="1">
          <mxGeometry y="52" width="280" height="26" as="geometry" />
        </mxCell>
        <mxCell id="1c6_3hAnqYALxn4iklmP-129" value="+ nodoFin: Nodo" style="text;strokeColor=none;fillColor=none;align=left;verticalAlign=top;spacingLeft=4;spacingRight=4;overflow=hidden;rotatable=0;points=[[0,0.5],[1,0.5]];portConstraint=eastwest;whiteSpace=wrap;html=1;" parent="1c6_3hAnqYALxn4iklmP-124" vertex="1">
          <mxGeometry y="78" width="280" height="26" as="geometry" />
        </mxCell>
        <mxCell id="1c6_3hAnqYALxn4iklmP-130" value="+ longitud: float" style="text;strokeColor=none;fillColor=none;align=left;verticalAlign=top;spacingLeft=4;spacingRight=4;overflow=hidden;rotatable=0;points=[[0,0.5],[1,0.5]];portConstraint=eastwest;whiteSpace=wrap;html=1;" parent="1c6_3hAnqYALxn4iklmP-124" vertex="1">
          <mxGeometry y="104" width="280" height="26" as="geometry" />
        </mxCell>
        <mxCell id="1c6_3hAnqYALxn4iklmP-126" value="" style="line;strokeWidth=1;fillColor=none;align=left;verticalAlign=middle;spacingTop=-1;spacingLeft=3;spacingRight=3;rotatable=0;labelPosition=right;points=[];portConstraint=eastwest;strokeColor=inherit;" parent="1c6_3hAnqYALxn4iklmP-124" vertex="1">
          <mxGeometry y="130" width="280" height="8" as="geometry" />
        </mxCell>
        <mxCell id="1c6_3hAnqYALxn4iklmP-127" value="+ calcularTiempoEstimado(velocidad: float): float" style="text;strokeColor=none;fillColor=none;align=left;verticalAlign=top;spacingLeft=4;spacingRight=4;overflow=hidden;rotatable=0;points=[[0,0.5],[1,0.5]];portConstraint=eastwest;whiteSpace=wrap;html=1;" parent="1c6_3hAnqYALxn4iklmP-124" vertex="1">
          <mxGeometry y="138" width="280" height="26" as="geometry" />
        </mxCell>
        <mxCell id="1c6_3hAnqYALxn4iklmP-131" value="Carga" style="swimlane;fontStyle=1;align=center;verticalAlign=top;childLayout=stackLayout;horizontal=1;startSize=26;horizontalStack=0;resizeParent=1;resizeParentMax=0;resizeLast=0;collapsible=1;marginBottom=0;whiteSpace=wrap;html=1;" parent="1" vertex="1">
          <mxGeometry x="470" y="510" width="220" height="242" as="geometry">
            <mxRectangle x="-10" y="390" width="70" height="30" as="alternateBounds" />
          </mxGeometry>
        </mxCell>
        <mxCell id="1c6_3hAnqYALxn4iklmP-132" value="+ id: string" style="text;strokeColor=none;fillColor=none;align=left;verticalAlign=top;spacingLeft=4;spacingRight=4;overflow=hidden;rotatable=0;points=[[0,0.5],[1,0.5]];portConstraint=eastwest;whiteSpace=wrap;html=1;" parent="1c6_3hAnqYALxn4iklmP-131" vertex="1">
          <mxGeometry y="26" width="220" height="26" as="geometry" />
        </mxCell>
        <mxCell id="1c6_3hAnqYALxn4iklmP-135" value="+ peso: float" style="text;strokeColor=none;fillColor=none;align=left;verticalAlign=top;spacingLeft=4;spacingRight=4;overflow=hidden;rotatable=0;points=[[0,0.5],[1,0.5]];portConstraint=eastwest;whiteSpace=wrap;html=1;" parent="1c6_3hAnqYALxn4iklmP-131" vertex="1">
          <mxGeometry y="52" width="220" height="26" as="geometry" />
        </mxCell>
        <mxCell id="1c6_3hAnqYALxn4iklmP-136" value="+ origen: Nodo" style="text;strokeColor=none;fillColor=none;align=left;verticalAlign=top;spacingLeft=4;spacingRight=4;overflow=hidden;rotatable=0;points=[[0,0.5],[1,0.5]];portConstraint=eastwest;whiteSpace=wrap;html=1;" parent="1c6_3hAnqYALxn4iklmP-131" vertex="1">
          <mxGeometry y="78" width="220" height="26" as="geometry" />
        </mxCell>
        <mxCell id="1c6_3hAnqYALxn4iklmP-137" value="+ destino: Nodo" style="text;strokeColor=none;fillColor=none;align=left;verticalAlign=top;spacingLeft=4;spacingRight=4;overflow=hidden;rotatable=0;points=[[0,0.5],[1,0.5]];portConstraint=eastwest;whiteSpace=wrap;html=1;" parent="1c6_3hAnqYALxn4iklmP-131" vertex="1">
          <mxGeometry y="104" width="220" height="26" as="geometry" />
        </mxCell>
        <mxCell id="1c6_3hAnqYALxn4iklmP-138" value="+ estado: string" style="text;strokeColor=none;fillColor=none;align=left;verticalAlign=top;spacingLeft=4;spacingRight=4;overflow=hidden;rotatable=0;points=[[0,0.5],[1,0.5]];portConstraint=eastwest;whiteSpace=wrap;html=1;" parent="1c6_3hAnqYALxn4iklmP-131" vertex="1">
          <mxGeometry y="130" width="220" height="26" as="geometry" />
        </mxCell>
        <mxCell id="1c6_3hAnqYALxn4iklmP-133" value="" style="line;strokeWidth=1;fillColor=none;align=left;verticalAlign=middle;spacingTop=-1;spacingLeft=3;spacingRight=3;rotatable=0;labelPosition=right;points=[];portConstraint=eastwest;strokeColor=inherit;" parent="1c6_3hAnqYALxn4iklmP-131" vertex="1">
          <mxGeometry y="156" width="220" height="8" as="geometry" />
        </mxCell>
        <mxCell id="1c6_3hAnqYALxn4iklmP-134" value="+ asignarDestino(destino: Nodo)" style="text;strokeColor=none;fillColor=none;align=left;verticalAlign=top;spacingLeft=4;spacingRight=4;overflow=hidden;rotatable=0;points=[[0,0.5],[1,0.5]];portConstraint=eastwest;whiteSpace=wrap;html=1;" parent="1c6_3hAnqYALxn4iklmP-131" vertex="1">
          <mxGeometry y="164" width="220" height="26" as="geometry" />
        </mxCell>
        <mxCell id="1c6_3hAnqYALxn4iklmP-139" value="+ marcarEntregada()" style="text;strokeColor=none;fillColor=none;align=left;verticalAlign=top;spacingLeft=4;spacingRight=4;overflow=hidden;rotatable=0;points=[[0,0.5],[1,0.5]];portConstraint=eastwest;whiteSpace=wrap;html=1;" parent="1c6_3hAnqYALxn4iklmP-131" vertex="1">
          <mxGeometry y="190" width="220" height="26" as="geometry" />
        </mxCell>
        <mxCell id="1c6_3hAnqYALxn4iklmP-140" value="+ transferir(otroCarro: CarroSeguidor)" style="text;strokeColor=none;fillColor=none;align=left;verticalAlign=top;spacingLeft=4;spacingRight=4;overflow=hidden;rotatable=0;points=[[0,0.5],[1,0.5]];portConstraint=eastwest;whiteSpace=wrap;html=1;" parent="1c6_3hAnqYALxn4iklmP-131" vertex="1">
          <mxGeometry y="216" width="220" height="26" as="geometry" />
        </mxCell>
        <mxCell id="1c6_3hAnqYALxn4iklmP-142" value="Sensor" style="swimlane;fontStyle=1;align=center;verticalAlign=top;childLayout=stackLayout;horizontal=1;startSize=26;horizontalStack=0;resizeParent=1;resizeParentMax=0;resizeLast=0;collapsible=1;marginBottom=0;whiteSpace=wrap;html=1;" parent="1" vertex="1">
          <mxGeometry x="-770" y="330" width="160" height="138" as="geometry">
            <mxRectangle x="-820" y="350" width="80" height="30" as="alternateBounds" />
          </mxGeometry>
        </mxCell>
        <mxCell id="1c6_3hAnqYALxn4iklmP-143" value="+ id: int" style="text;strokeColor=none;fillColor=none;align=left;verticalAlign=top;spacingLeft=4;spacingRight=4;overflow=hidden;rotatable=0;points=[[0,0.5],[1,0.5]];portConstraint=eastwest;whiteSpace=wrap;html=1;" parent="1c6_3hAnqYALxn4iklmP-142" vertex="1">
          <mxGeometry y="26" width="160" height="26" as="geometry" />
        </mxCell>
        <mxCell id="1c6_3hAnqYALxn4iklmP-146" value="+ activo: boolean" style="text;strokeColor=none;fillColor=none;align=left;verticalAlign=top;spacingLeft=4;spacingRight=4;overflow=hidden;rotatable=0;points=[[0,0.5],[1,0.5]];portConstraint=eastwest;whiteSpace=wrap;html=1;" parent="1c6_3hAnqYALxn4iklmP-142" vertex="1">
          <mxGeometry y="52" width="160" height="26" as="geometry" />
        </mxCell>
        <mxCell id="1c6_3hAnqYALxn4iklmP-144" value="" style="line;strokeWidth=1;fillColor=none;align=left;verticalAlign=middle;spacingTop=-1;spacingLeft=3;spacingRight=3;rotatable=0;labelPosition=right;points=[];portConstraint=eastwest;strokeColor=inherit;" parent="1c6_3hAnqYALxn4iklmP-142" vertex="1">
          <mxGeometry y="78" width="160" height="8" as="geometry" />
        </mxCell>
        <mxCell id="1c6_3hAnqYALxn4iklmP-145" value="+ leer(): string" style="text;strokeColor=none;fillColor=none;align=left;verticalAlign=top;spacingLeft=4;spacingRight=4;overflow=hidden;rotatable=0;points=[[0,0.5],[1,0.5]];portConstraint=eastwest;whiteSpace=wrap;html=1;" parent="1c6_3hAnqYALxn4iklmP-142" vertex="1">
          <mxGeometry y="86" width="160" height="26" as="geometry" />
        </mxCell>
        <mxCell id="1c6_3hAnqYALxn4iklmP-148" value="+ calibrar()" style="text;strokeColor=none;fillColor=none;align=left;verticalAlign=top;spacingLeft=4;spacingRight=4;overflow=hidden;rotatable=0;points=[[0,0.5],[1,0.5]];portConstraint=eastwest;whiteSpace=wrap;html=1;" parent="1c6_3hAnqYALxn4iklmP-142" vertex="1">
          <mxGeometry y="112" width="160" height="26" as="geometry" />
        </mxCell>
        <mxCell id="1c6_3hAnqYALxn4iklmP-149" value="Bateria" style="swimlane;fontStyle=1;align=center;verticalAlign=top;childLayout=stackLayout;horizontal=1;startSize=26;horizontalStack=0;resizeParent=1;resizeParentMax=0;resizeLast=0;collapsible=1;marginBottom=0;whiteSpace=wrap;html=1;" parent="1" vertex="1">
          <mxGeometry x="760" y="389" width="160" height="190" as="geometry">
            <mxRectangle x="105" y="549" width="80" height="30" as="alternateBounds" />
          </mxGeometry>
        </mxCell>
        <mxCell id="1c6_3hAnqYALxn4iklmP-150" value="+ capacidad: float" style="text;strokeColor=none;fillColor=none;align=left;verticalAlign=top;spacingLeft=4;spacingRight=4;overflow=hidden;rotatable=0;points=[[0,0.5],[1,0.5]];portConstraint=eastwest;whiteSpace=wrap;html=1;" parent="1c6_3hAnqYALxn4iklmP-149" vertex="1">
          <mxGeometry y="26" width="160" height="26" as="geometry" />
        </mxCell>
        <mxCell id="1c6_3hAnqYALxn4iklmP-153" value="+ nivelActual: float" style="text;strokeColor=none;fillColor=none;align=left;verticalAlign=top;spacingLeft=4;spacingRight=4;overflow=hidden;rotatable=0;points=[[0,0.5],[1,0.5]];portConstraint=eastwest;whiteSpace=wrap;html=1;" parent="1c6_3hAnqYALxn4iklmP-149" vertex="1">
          <mxGeometry y="52" width="160" height="26" as="geometry" />
        </mxCell>
        <mxCell id="1c6_3hAnqYALxn4iklmP-154" value="+ estado: string" style="text;strokeColor=none;fillColor=none;align=left;verticalAlign=top;spacingLeft=4;spacingRight=4;overflow=hidden;rotatable=0;points=[[0,0.5],[1,0.5]];portConstraint=eastwest;whiteSpace=wrap;html=1;" parent="1c6_3hAnqYALxn4iklmP-149" vertex="1">
          <mxGeometry y="78" width="160" height="26" as="geometry" />
        </mxCell>
        <mxCell id="1c6_3hAnqYALxn4iklmP-151" value="" style="line;strokeWidth=1;fillColor=none;align=left;verticalAlign=middle;spacingTop=-1;spacingLeft=3;spacingRight=3;rotatable=0;labelPosition=right;points=[];portConstraint=eastwest;strokeColor=inherit;" parent="1c6_3hAnqYALxn4iklmP-149" vertex="1">
          <mxGeometry y="104" width="160" height="8" as="geometry" />
        </mxCell>
        <mxCell id="1c6_3hAnqYALxn4iklmP-152" value="+ consumir(wh: float)" style="text;strokeColor=none;fillColor=none;align=left;verticalAlign=top;spacingLeft=4;spacingRight=4;overflow=hidden;rotatable=0;points=[[0,0.5],[1,0.5]];portConstraint=eastwest;whiteSpace=wrap;html=1;" parent="1c6_3hAnqYALxn4iklmP-149" vertex="1">
          <mxGeometry y="112" width="160" height="26" as="geometry" />
        </mxCell>
        <mxCell id="1c6_3hAnqYALxn4iklmP-155" value="+ recargar()" style="text;strokeColor=none;fillColor=none;align=left;verticalAlign=top;spacingLeft=4;spacingRight=4;overflow=hidden;rotatable=0;points=[[0,0.5],[1,0.5]];portConstraint=eastwest;whiteSpace=wrap;html=1;" parent="1c6_3hAnqYALxn4iklmP-149" vertex="1">
          <mxGeometry y="138" width="160" height="26" as="geometry" />
        </mxCell>
        <mxCell id="1c6_3hAnqYALxn4iklmP-156" value="+ notificarBaja()" style="text;strokeColor=none;fillColor=none;align=left;verticalAlign=top;spacingLeft=4;spacingRight=4;overflow=hidden;rotatable=0;points=[[0,0.5],[1,0.5]];portConstraint=eastwest;whiteSpace=wrap;html=1;" parent="1c6_3hAnqYALxn4iklmP-149" vertex="1">
          <mxGeometry y="164" width="160" height="26" as="geometry" />
        </mxCell>
        <mxCell id="1c6_3hAnqYALxn4iklmP-165" value="1" style="endArrow=open;html=1;endSize=12;startArrow=diamondThin;startSize=14;startFill=1;edgeStyle=orthogonalEdgeStyle;align=left;verticalAlign=bottom;rounded=0;exitX=0.25;exitY=1;exitDx=0;exitDy=0;entryX=1;entryY=0.927;entryDx=0;entryDy=0;entryPerimeter=0;fillColor=#008a00;strokeColor=#005700;" parent="1" source="1c6_3hAnqYALxn4iklmP-1" target="1c6_3hAnqYALxn4iklmP-20" edge="1">
          <mxGeometry x="-1" y="3" relative="1" as="geometry">
            <mxPoint x="-35" y="690" as="sourcePoint" />
            <mxPoint x="-280" y="590" as="targetPoint" />
            <Array as="points">
              <mxPoint x="-357" y="460" />
              <mxPoint x="-360" y="460" />
              <mxPoint x="-360" y="750" />
            </Array>
          </mxGeometry>
        </mxCell>
        <mxCell id="1c6_3hAnqYALxn4iklmP-166" value="1" style="endArrow=open;html=1;endSize=12;startArrow=diamondThin;startSize=14;startFill=1;edgeStyle=orthogonalEdgeStyle;align=left;verticalAlign=bottom;rounded=0;entryX=0.5;entryY=1;entryDx=0;entryDy=0;fillColor=#0050ef;strokeColor=#001DBC;exitX=1;exitY=0.5;exitDx=0;exitDy=0;" parent="1" source="1c6_3hAnqYALxn4iklmP-101" target="1c6_3hAnqYALxn4iklmP-29" edge="1">
          <mxGeometry x="-1" y="3" relative="1" as="geometry">
            <mxPoint x="-150" y="120" as="sourcePoint" />
            <mxPoint x="185" y="509" as="targetPoint" />
            <Array as="points">
              <mxPoint x="-140" y="101" />
              <mxPoint x="-140" y="90" />
              <mxPoint x="10" y="90" />
              <mxPoint x="10" y="324" />
              <mxPoint x="510" y="324" />
            </Array>
          </mxGeometry>
        </mxCell>
        <mxCell id="1c6_3hAnqYALxn4iklmP-171" value="1" style="endArrow=open;html=1;endSize=12;startArrow=diamondThin;startSize=14;startFill=1;edgeStyle=orthogonalEdgeStyle;align=left;verticalAlign=bottom;rounded=0;entryX=0.5;entryY=0;entryDx=0;entryDy=0;fillColor=#008a00;strokeColor=#005700;exitX=-0.011;exitY=0.235;exitDx=0;exitDy=0;exitPerimeter=0;" parent="1" source="1c6_3hAnqYALxn4iklmP-14" target="1c6_3hAnqYALxn4iklmP-22" edge="1">
          <mxGeometry x="-1" y="3" relative="1" as="geometry">
            <mxPoint x="-500" y="260" as="sourcePoint" />
            <mxPoint x="-125" y="454.33000000000004" as="targetPoint" />
            <Array as="points">
              <mxPoint x="-460" y="250" />
              <mxPoint x="-460" y="400" />
              <mxPoint x="-570" y="400" />
            </Array>
          </mxGeometry>
        </mxCell>
        <mxCell id="1c6_3hAnqYALxn4iklmP-175" value="1" style="endArrow=open;html=1;endSize=12;startArrow=diamondThin;startSize=14;startFill=1;edgeStyle=orthogonalEdgeStyle;align=left;verticalAlign=bottom;rounded=0;entryX=0;entryY=0.5;entryDx=0;entryDy=0;exitX=0.592;exitY=1.07;exitDx=0;exitDy=0;exitPerimeter=0;fillColor=#008a00;strokeColor=#005700;" parent="1" source="1c6_3hAnqYALxn4iklmP-13" edge="1">
          <mxGeometry x="-1" y="3" relative="1" as="geometry">
            <mxPoint x="-100" y="580" as="sourcePoint" />
            <mxPoint x="20" y="1019.9999999999995" as="targetPoint" />
            <Array as="points">
              <mxPoint x="-272" y="610" />
              <mxPoint x="-10" y="610" />
              <mxPoint x="-10" y="1020" />
            </Array>
          </mxGeometry>
        </mxCell>
        <mxCell id="1c6_3hAnqYALxn4iklmP-176" value="1" style="endArrow=open;html=1;endSize=12;startArrow=diamondThin;startSize=14;startFill=1;edgeStyle=orthogonalEdgeStyle;align=left;verticalAlign=bottom;rounded=0;exitX=0.75;exitY=1;exitDx=0;exitDy=0;entryX=0;entryY=0.5;entryDx=0;entryDy=0;fillColor=#a0522d;strokeColor=#6D1F00;" parent="1" source="1c6_3hAnqYALxn4iklmP-1" target="1c6_3hAnqYALxn4iklmP-44" edge="1">
          <mxGeometry x="-1" y="3" relative="1" as="geometry">
            <mxPoint x="-70" y="480" as="sourcePoint" />
            <mxPoint x="90" y="480" as="targetPoint" />
            <Array as="points">
              <mxPoint x="-232" y="360" />
              <mxPoint x="-75" y="360" />
              <mxPoint x="-75" y="660" />
              <mxPoint x="280" y="660" />
              <mxPoint x="280" y="1339" />
            </Array>
          </mxGeometry>
        </mxCell>
        <mxCell id="1c6_3hAnqYALxn4iklmP-177" value="1" style="endArrow=open;html=1;endSize=12;startArrow=diamondThin;startSize=14;startFill=1;edgeStyle=orthogonalEdgeStyle;align=left;verticalAlign=bottom;rounded=0;exitX=0.908;exitY=1.106;exitDx=0;exitDy=0;entryX=0;entryY=0.5;entryDx=0;entryDy=0;exitPerimeter=0;fillColor=#008a00;strokeColor=#005700;" parent="1" source="1c6_3hAnqYALxn4iklmP-13" target="1c6_3hAnqYALxn4iklmP-149" edge="1">
          <mxGeometry x="-1" y="3" relative="1" as="geometry">
            <mxPoint x="-80" y="470" as="sourcePoint" />
            <mxPoint x="80" y="470" as="targetPoint" />
            <Array as="points">
              <mxPoint x="-193" y="564" />
              <mxPoint x="380" y="564" />
              <mxPoint x="380" y="484" />
            </Array>
          </mxGeometry>
        </mxCell>
        <mxCell id="1c6_3hAnqYALxn4iklmP-178" value="" style="endArrow=none;html=1;edgeStyle=orthogonalEdgeStyle;rounded=0;exitX=1;exitY=0.5;exitDx=0;exitDy=0;entryX=0.5;entryY=1;entryDx=0;entryDy=0;fillColor=#f0a30a;strokeColor=#BD7000;" parent="1" source="1c6_3hAnqYALxn4iklmP-103" target="1c6_3hAnqYALxn4iklmP-131" edge="1">
          <mxGeometry relative="1" as="geometry">
            <mxPoint x="10" y="500" as="sourcePoint" />
            <mxPoint x="-40" y="380" as="targetPoint" />
            <Array as="points">
              <mxPoint x="-105" y="205" />
              <mxPoint x="-105" y="500" />
              <mxPoint x="350" y="500" />
              <mxPoint x="350" y="762" />
              <mxPoint x="580" y="762" />
            </Array>
          </mxGeometry>
        </mxCell>
        <mxCell id="1c6_3hAnqYALxn4iklmP-179" value="parent" style="edgeLabel;resizable=0;html=1;align=left;verticalAlign=bottom;fontColor=none;noLabel=1;" parent="1c6_3hAnqYALxn4iklmP-178" connectable="0" vertex="1">
          <mxGeometry x="-1" relative="1" as="geometry" />
        </mxCell>
        <mxCell id="1c6_3hAnqYALxn4iklmP-180" value="child" style="edgeLabel;resizable=0;html=1;align=right;verticalAlign=bottom;fontColor=none;noLabel=1;" parent="1c6_3hAnqYALxn4iklmP-178" connectable="0" vertex="1">
          <mxGeometry x="1" relative="1" as="geometry" />
        </mxCell>
        <mxCell id="1c6_3hAnqYALxn4iklmP-181" value="" style="endArrow=none;html=1;edgeStyle=orthogonalEdgeStyle;rounded=0;exitX=0.25;exitY=0;exitDx=0;exitDy=0;entryX=0.467;entryY=1.026;entryDx=0;entryDy=0;entryPerimeter=0;fillColor=#e51400;strokeColor=#B20000;" parent="1" source="1c6_3hAnqYALxn4iklmP-1" target="1c6_3hAnqYALxn4iklmP-114" edge="1">
          <mxGeometry relative="1" as="geometry">
            <mxPoint x="-240" y="420" as="sourcePoint" />
            <mxPoint x="-380" y="-290" as="targetPoint" />
            <Array as="points">
              <mxPoint x="-357" y="-210" />
              <mxPoint x="-370" y="-210" />
              <mxPoint x="-370" y="-300" />
              <mxPoint x="-368" y="-300" />
            </Array>
          </mxGeometry>
        </mxCell>
        <mxCell id="1c6_3hAnqYALxn4iklmP-182" value="parent" style="edgeLabel;resizable=0;html=1;align=left;verticalAlign=bottom;fontColor=none;noLabel=1;" parent="1c6_3hAnqYALxn4iklmP-181" connectable="0" vertex="1">
          <mxGeometry x="-1" relative="1" as="geometry" />
        </mxCell>
        <mxCell id="1c6_3hAnqYALxn4iklmP-183" value="child" style="edgeLabel;resizable=0;html=1;align=right;verticalAlign=bottom;fontColor=none;noLabel=1;" parent="1c6_3hAnqYALxn4iklmP-181" connectable="0" vertex="1">
          <mxGeometry x="1" relative="1" as="geometry" />
        </mxCell>
        <mxCell id="1c6_3hAnqYALxn4iklmP-184" value="" style="endArrow=none;html=1;edgeStyle=orthogonalEdgeStyle;rounded=0;exitX=0.114;exitY=1.034;exitDx=0;exitDy=0;entryX=0.5;entryY=0;entryDx=0;entryDy=0;exitPerimeter=0;fillColor=#0050ef;strokeColor=#001DBC;" parent="1" source="1c6_3hAnqYALxn4iklmP-13" target="1c6_3hAnqYALxn4iklmP-115" edge="1">
          <mxGeometry relative="1" as="geometry">
            <mxPoint x="-300" y="684.17" as="sourcePoint" />
            <mxPoint x="-140" y="684.17" as="targetPoint" />
            <Array as="points">
              <mxPoint x="-392" y="564" />
              <mxPoint x="-300" y="564" />
              <mxPoint x="-300" y="700" />
              <mxPoint x="-295" y="700" />
            </Array>
          </mxGeometry>
        </mxCell>
        <mxCell id="1c6_3hAnqYALxn4iklmP-185" value="parent" style="edgeLabel;resizable=0;html=1;align=left;verticalAlign=bottom;fontColor=none;noLabel=1;" parent="1c6_3hAnqYALxn4iklmP-184" connectable="0" vertex="1">
          <mxGeometry x="-1" relative="1" as="geometry" />
        </mxCell>
        <mxCell id="1c6_3hAnqYALxn4iklmP-186" value="child" style="edgeLabel;resizable=0;html=1;align=right;verticalAlign=bottom;fontColor=none;noLabel=1;" parent="1c6_3hAnqYALxn4iklmP-184" connectable="0" vertex="1">
          <mxGeometry x="1" relative="1" as="geometry" />
        </mxCell>
        <mxCell id="1c6_3hAnqYALxn4iklmP-187" value="" style="endArrow=none;html=1;edgeStyle=orthogonalEdgeStyle;rounded=0;exitX=-0.004;exitY=0.173;exitDx=0;exitDy=0;entryX=1;entryY=0.5;entryDx=0;entryDy=0;fontColor=default;exitPerimeter=0;fillColor=#e51400;strokeColor=#B20000;" parent="1" source="1c6_3hAnqYALxn4iklmP-11" target="1c6_3hAnqYALxn4iklmP-55" edge="1">
          <mxGeometry relative="1" as="geometry">
            <mxPoint x="-210" y="398.33" as="sourcePoint" />
            <mxPoint x="-50" y="398.33" as="targetPoint" />
            <Array as="points">
              <mxPoint x="-500" y="145" />
              <mxPoint x="-500" y="128" />
            </Array>
          </mxGeometry>
        </mxCell>
        <mxCell id="1c6_3hAnqYALxn4iklmP-188" value="parent" style="edgeLabel;resizable=0;html=1;align=left;verticalAlign=bottom;fontColor=none;noLabel=1;" parent="1c6_3hAnqYALxn4iklmP-187" connectable="0" vertex="1">
          <mxGeometry x="-1" relative="1" as="geometry" />
        </mxCell>
        <mxCell id="1c6_3hAnqYALxn4iklmP-189" value="child" style="edgeLabel;resizable=0;html=1;align=right;verticalAlign=bottom;fontColor=none;noLabel=1;" parent="1c6_3hAnqYALxn4iklmP-187" connectable="0" vertex="1">
          <mxGeometry x="1" relative="1" as="geometry" />
        </mxCell>
        <mxCell id="1c6_3hAnqYALxn4iklmP-190" value="Use" style="endArrow=open;endSize=12;dashed=1;html=1;rounded=0;entryX=0.25;entryY=0;entryDx=0;entryDy=0;fontColor=none;noLabel=1;exitX=0.351;exitY=1.179;exitDx=0;exitDy=0;exitPerimeter=0;fillColor=#a0522d;strokeColor=#6D1F00;" parent="1" target="1c6_3hAnqYALxn4iklmP-77" edge="1" source="1c6_3hAnqYALxn4iklmP-13">
          <mxGeometry width="160" relative="1" as="geometry">
            <mxPoint x="-150" y="580" as="sourcePoint" />
            <mxPoint x="50" y="780" as="targetPoint" />
            <Array as="points">
              <mxPoint x="-332" y="500" />
              <mxPoint x="-160" y="500" />
              <mxPoint x="-110" y="870" />
            </Array>
          </mxGeometry>
        </mxCell>
        <mxCell id="1c6_3hAnqYALxn4iklmP-191" value="1" style="endArrow=open;html=1;endSize=12;startArrow=diamondThin;startSize=14;startFill=1;edgeStyle=orthogonalEdgeStyle;align=left;verticalAlign=bottom;rounded=0;exitX=1;exitY=0.5;exitDx=0;exitDy=0;entryX=0;entryY=0.5;entryDx=0;entryDy=0;" parent="1" source="1c6_3hAnqYALxn4iklmP-57" edge="1" target="1c6_3hAnqYALxn4iklmP-67">
          <mxGeometry x="-1" y="3" relative="1" as="geometry">
            <mxPoint x="54" y="84.23000000000002" as="sourcePoint" />
            <mxPoint x="140" y="175" as="targetPoint" />
          </mxGeometry>
        </mxCell>
        <mxCell id="1c6_3hAnqYALxn4iklmP-192" value="" style="endArrow=none;html=1;edgeStyle=orthogonalEdgeStyle;rounded=0;exitX=0.5;exitY=1;exitDx=0;exitDy=0;entryX=0.5;entryY=0;entryDx=0;entryDy=0;" parent="1" source="1c6_3hAnqYALxn4iklmP-57" target="1c6_3hAnqYALxn4iklmP-72" edge="1">
          <mxGeometry relative="1" as="geometry">
            <mxPoint x="-130" y="100" as="sourcePoint" />
            <mxPoint x="30" y="100" as="targetPoint" />
          </mxGeometry>
        </mxCell>
        <mxCell id="1c6_3hAnqYALxn4iklmP-193" value="parent" style="edgeLabel;resizable=0;html=1;align=left;verticalAlign=bottom;fontColor=none;noLabel=1;" parent="1c6_3hAnqYALxn4iklmP-192" connectable="0" vertex="1">
          <mxGeometry x="-1" relative="1" as="geometry" />
        </mxCell>
        <mxCell id="1c6_3hAnqYALxn4iklmP-194" value="child" style="edgeLabel;resizable=0;html=1;align=right;verticalAlign=bottom;fontColor=none;noLabel=1;" parent="1c6_3hAnqYALxn4iklmP-192" connectable="0" vertex="1">
          <mxGeometry x="1" relative="1" as="geometry" />
        </mxCell>
        <mxCell id="1c6_3hAnqYALxn4iklmP-195" value="" style="endArrow=none;html=1;edgeStyle=orthogonalEdgeStyle;rounded=0;entryX=0;entryY=0.5;entryDx=0;entryDy=0;fillColor=#76608a;strokeColor=#432D57;exitX=1.002;exitY=0.134;exitDx=0;exitDy=0;exitPerimeter=0;" parent="1" source="1c6_3hAnqYALxn4iklmP-10" target="1c6_3hAnqYALxn4iklmP-57" edge="1">
          <mxGeometry relative="1" as="geometry">
            <mxPoint x="-160" y="-40" as="sourcePoint" />
            <mxPoint x="-25" y="220" as="targetPoint" />
            <Array as="points">
              <mxPoint x="-150" y="-47" />
              <mxPoint x="-140" y="-47" />
              <mxPoint x="-61" y="-47" />
              <mxPoint x="-61" y="-19" />
            </Array>
          </mxGeometry>
        </mxCell>
        <mxCell id="1c6_3hAnqYALxn4iklmP-196" value="parent" style="edgeLabel;resizable=0;html=1;align=left;verticalAlign=bottom;fontColor=none;noLabel=1;" parent="1c6_3hAnqYALxn4iklmP-195" connectable="0" vertex="1">
          <mxGeometry x="-1" relative="1" as="geometry" />
        </mxCell>
        <mxCell id="1c6_3hAnqYALxn4iklmP-197" value="child" style="edgeLabel;resizable=0;html=1;align=right;verticalAlign=bottom;fontColor=none;noLabel=1;" parent="1c6_3hAnqYALxn4iklmP-195" connectable="0" vertex="1">
          <mxGeometry x="1" relative="1" as="geometry" />
        </mxCell>
        <mxCell id="1c6_3hAnqYALxn4iklmP-198" value="Use" style="endArrow=open;endSize=12;dashed=1;html=1;rounded=0;exitX=0.25;exitY=1;exitDx=0;exitDy=0;entryX=0.5;entryY=0;entryDx=0;entryDy=0;fontColor=none;noLabel=1;" parent="1" source="1c6_3hAnqYALxn4iklmP-142" target="1c6_3hAnqYALxn4iklmP-15" edge="1">
          <mxGeometry width="160" relative="1" as="geometry">
            <mxPoint x="-340" y="290" as="sourcePoint" />
            <mxPoint x="-180" y="290" as="targetPoint" />
            <Array as="points" />
          </mxGeometry>
        </mxCell>
        <mxCell id="1c6_3hAnqYALxn4iklmP-199" value="Use" style="endArrow=open;endSize=12;dashed=1;html=1;rounded=0;exitX=0.75;exitY=1;exitDx=0;exitDy=0;fontColor=none;noLabel=1;entryX=0.437;entryY=-0.008;entryDx=0;entryDy=0;entryPerimeter=0;" parent="1" source="1c6_3hAnqYALxn4iklmP-142" target="1c6_3hAnqYALxn4iklmP-22" edge="1">
          <mxGeometry width="160" relative="1" as="geometry">
            <mxPoint x="-340" y="290" as="sourcePoint" />
            <mxPoint x="-590" y="560" as="targetPoint" />
            <Array as="points">
              <mxPoint x="-610" y="520" />
            </Array>
          </mxGeometry>
        </mxCell>
        <mxCell id="1c6_3hAnqYALxn4iklmP-200" value="Use" style="endArrow=open;endSize=12;dashed=1;html=1;rounded=0;exitX=1;exitY=0.5;exitDx=0;exitDy=0;entryX=0;entryY=0.5;entryDx=0;entryDy=0;fontColor=none;noLabel=1;fillColor=#6d8764;strokeColor=#3A5431;" parent="1" source="1c6_3hAnqYALxn4iklmP-146" target="1c6_3hAnqYALxn4iklmP-72" edge="1">
          <mxGeometry width="160" relative="1" as="geometry">
            <mxPoint x="-340" y="290" as="sourcePoint" />
            <mxPoint x="-180" y="290" as="targetPoint" />
            <Array as="points">
              <mxPoint x="-480" y="440" />
              <mxPoint x="90" y="430" />
              <mxPoint x="90" y="232" />
            </Array>
          </mxGeometry>
        </mxCell>
        <mxCell id="1c6_3hAnqYALxn4iklmP-201" value="1" style="endArrow=open;html=1;endSize=12;startArrow=diamondThin;startSize=14;startFill=0;edgeStyle=orthogonalEdgeStyle;align=left;verticalAlign=bottom;rounded=0;exitX=0.5;exitY=0;exitDx=0;exitDy=0;entryX=0.472;entryY=1.179;entryDx=0;entryDy=0;entryPerimeter=0;fillColor=#6a00ff;strokeColor=#3700CC;" parent="1" source="1c6_3hAnqYALxn4iklmP-77" edge="1" target="1c6_3hAnqYALxn4iklmP-13">
          <mxGeometry x="-0.9345" y="8" relative="1" as="geometry">
            <mxPoint x="-42" y="1182" as="sourcePoint" />
            <mxPoint x="-120" y="580" as="targetPoint" />
            <Array as="points">
              <mxPoint x="-50" y="1102" />
              <mxPoint x="-42" y="1102" />
              <mxPoint x="-42" y="400" />
              <mxPoint x="-302" y="400" />
            </Array>
            <mxPoint as="offset" />
          </mxGeometry>
        </mxCell>
        <mxCell id="1c6_3hAnqYALxn4iklmP-202" value="Use" style="endArrow=open;endSize=12;dashed=1;html=1;rounded=0;exitX=1;exitY=0.5;exitDx=0;exitDy=0;entryX=0;entryY=0.5;entryDx=0;entryDy=0;fontColor=none;noLabel=1;" parent="1" source="1c6_3hAnqYALxn4iklmP-77" target="1c6_3hAnqYALxn4iklmP-85" edge="1">
          <mxGeometry width="160" relative="1" as="geometry">
            <mxPoint x="5" y="854.17" as="sourcePoint" />
            <mxPoint x="165" y="854.17" as="targetPoint" />
            <Array as="points">
              <mxPoint x="290" y="1220" />
            </Array>
          </mxGeometry>
        </mxCell>
        <mxCell id="1c6_3hAnqYALxn4iklmP-204" value="1" style="endArrow=open;html=1;endSize=12;startArrow=diamondThin;startSize=14;startFill=1;edgeStyle=orthogonalEdgeStyle;align=left;verticalAlign=bottom;rounded=0;exitX=0.675;exitY=1.051;exitDx=0;exitDy=0;entryX=0.75;entryY=1;entryDx=0;entryDy=0;exitPerimeter=0;" parent="1" source="1c6_3hAnqYALxn4iklmP-160" target="1c6_3hAnqYALxn4iklmP-77" edge="1">
          <mxGeometry x="-1" y="3" relative="1" as="geometry">
            <mxPoint x="205" y="770" as="sourcePoint" />
            <mxPoint x="365" y="770" as="targetPoint" />
            <Array as="points">
              <mxPoint x="727" y="1460" />
              <mxPoint x="45" y="1460" />
            </Array>
          </mxGeometry>
        </mxCell>
        <mxCell id="1c6_3hAnqYALxn4iklmP-206" value="1" style="endArrow=open;html=1;endSize=12;startArrow=diamondThin;startSize=14;startFill=1;edgeStyle=orthogonalEdgeStyle;align=left;verticalAlign=bottom;rounded=0;exitX=0.625;exitY=0;exitDx=0;exitDy=0;exitPerimeter=0;entryX=1;entryY=0.5;entryDx=0;entryDy=0;" parent="1" source="1c6_3hAnqYALxn4iklmP-85" target="1c6_3hAnqYALxn4iklmP-108" edge="1">
          <mxGeometry x="-1" y="3" relative="1" as="geometry">
            <mxPoint x="180" y="710" as="sourcePoint" />
            <mxPoint x="340" y="710" as="targetPoint" />
          </mxGeometry>
        </mxCell>
        <mxCell id="1c6_3hAnqYALxn4iklmP-207" value="1" style="endArrow=open;html=1;endSize=12;startArrow=diamondThin;startSize=14;startFill=0;edgeStyle=orthogonalEdgeStyle;align=left;verticalAlign=bottom;rounded=0;exitX=0.25;exitY=0;exitDx=0;exitDy=0;entryX=1;entryY=0.5;entryDx=0;entryDy=0;fillColor=#0050ef;strokeColor=#001DBC;" parent="1" source="1c6_3hAnqYALxn4iklmP-85" edge="1" target="1c6_3hAnqYALxn4iklmP-13">
          <mxGeometry x="-1" y="3" relative="1" as="geometry">
            <mxPoint x="25" y="800" as="sourcePoint" />
            <mxPoint x="-60" y="580" as="targetPoint" />
            <Array as="points">
              <mxPoint x="565" y="880" />
              <mxPoint x="430" y="880" />
              <mxPoint x="430" y="370" />
              <mxPoint x="-20" y="370" />
              <mxPoint x="-20" y="283" />
            </Array>
          </mxGeometry>
        </mxCell>
        <mxCell id="1c6_3hAnqYALxn4iklmP-208" value="1" style="endArrow=open;html=1;endSize=12;startArrow=diamondThin;startSize=14;startFill=1;edgeStyle=orthogonalEdgeStyle;align=left;verticalAlign=bottom;rounded=0;exitX=0.5;exitY=0;exitDx=0;exitDy=0;entryX=0.014;entryY=0.058;entryDx=0;entryDy=0;entryPerimeter=0;fillColor=#e51400;strokeColor=#B20000;" parent="1" source="1c6_3hAnqYALxn4iklmP-108" target="1c6_3hAnqYALxn4iklmP-121" edge="1">
          <mxGeometry x="-1" y="3" relative="1" as="geometry">
            <mxPoint x="-240" y="230" as="sourcePoint" />
            <mxPoint x="-400" y="968" as="targetPoint" />
            <Array as="points">
              <mxPoint x="-358" y="-530" />
              <mxPoint x="-90" y="-530" />
              <mxPoint x="-90" y="330" />
              <mxPoint x="-420" y="330" />
              <mxPoint x="-420" y="715" />
              <mxPoint x="-480" y="715" />
              <mxPoint x="-480" y="968" />
              <mxPoint x="-385" y="968" />
            </Array>
          </mxGeometry>
        </mxCell>
        <mxCell id="1c6_3hAnqYALxn4iklmP-209" value="1" style="endArrow=open;html=1;endSize=12;startArrow=diamondThin;startSize=14;startFill=1;edgeStyle=orthogonalEdgeStyle;align=left;verticalAlign=bottom;rounded=0;exitX=0.25;exitY=0;exitDx=0;exitDy=0;entryX=0.569;entryY=-0.004;entryDx=0;entryDy=0;entryPerimeter=0;fillColor=#e51400;strokeColor=#B20000;" parent="1" source="1c6_3hAnqYALxn4iklmP-108" target="1c6_3hAnqYALxn4iklmP-124" edge="1">
          <mxGeometry x="-1" y="3" relative="1" as="geometry">
            <mxPoint x="-240" y="250" as="sourcePoint" />
            <mxPoint x="-80" y="250" as="targetPoint" />
            <Array as="points">
              <mxPoint x="-435" y="-560" />
              <mxPoint x="-570" y="-560" />
              <mxPoint x="-570" y="-300" />
              <mxPoint x="-621" y="-300" />
            </Array>
          </mxGeometry>
        </mxCell>
        <mxCell id="1c6_3hAnqYALxn4iklmP-210" value="" style="endArrow=none;html=1;edgeStyle=orthogonalEdgeStyle;rounded=0;exitX=1;exitY=0.5;exitDx=0;exitDy=0;entryX=0.588;entryY=0.003;entryDx=0;entryDy=0;entryPerimeter=0;" parent="1" source="1c6_3hAnqYALxn4iklmP-113" target="1c6_3hAnqYALxn4iklmP-93" edge="1">
          <mxGeometry relative="1" as="geometry">
            <mxPoint x="-260" y="140" as="sourcePoint" />
            <mxPoint x="-90" y="-150" as="targetPoint" />
            <Array as="points">
              <mxPoint x="60" y="-355" />
            </Array>
          </mxGeometry>
        </mxCell>
        <mxCell id="1c6_3hAnqYALxn4iklmP-211" value="parent" style="edgeLabel;resizable=0;html=1;align=left;verticalAlign=bottom;fontColor=none;noLabel=1;" parent="1c6_3hAnqYALxn4iklmP-210" connectable="0" vertex="1">
          <mxGeometry x="-1" relative="1" as="geometry" />
        </mxCell>
        <mxCell id="1c6_3hAnqYALxn4iklmP-212" value="child" style="edgeLabel;resizable=0;html=1;align=right;verticalAlign=bottom;fontColor=none;noLabel=1;" parent="1c6_3hAnqYALxn4iklmP-210" connectable="0" vertex="1">
          <mxGeometry x="1" relative="1" as="geometry" />
        </mxCell>
        <mxCell id="1c6_3hAnqYALxn4iklmP-213" value="" style="endArrow=none;html=1;edgeStyle=orthogonalEdgeStyle;rounded=0;exitX=0.5;exitY=1;exitDx=0;exitDy=0;entryX=0.002;entryY=0.727;entryDx=0;entryDy=0;entryPerimeter=0;" parent="1" source="1c6_3hAnqYALxn4iklmP-115" target="1c6_3hAnqYALxn4iklmP-137" edge="1">
          <mxGeometry relative="1" as="geometry">
            <mxPoint x="100" y="300" as="sourcePoint" />
            <mxPoint x="450" y="610" as="targetPoint" />
            <Array as="points">
              <mxPoint x="-295" y="1100" />
              <mxPoint x="-170" y="1100" />
              <mxPoint x="-170" y="760" />
              <mxPoint x="230" y="760" />
              <mxPoint x="230" y="631" />
              <mxPoint x="460" y="631" />
              <mxPoint x="460" y="633" />
            </Array>
          </mxGeometry>
        </mxCell>
        <mxCell id="1c6_3hAnqYALxn4iklmP-214" value="parent" style="edgeLabel;resizable=0;html=1;align=left;verticalAlign=bottom;fontColor=none;noLabel=1;" parent="1c6_3hAnqYALxn4iklmP-213" connectable="0" vertex="1">
          <mxGeometry x="-1" relative="1" as="geometry" />
        </mxCell>
        <mxCell id="1c6_3hAnqYALxn4iklmP-215" value="child" style="edgeLabel;resizable=0;html=1;align=right;verticalAlign=bottom;fontColor=none;noLabel=1;" parent="1c6_3hAnqYALxn4iklmP-213" connectable="0" vertex="1">
          <mxGeometry x="1" relative="1" as="geometry" />
        </mxCell>
      </root>
    </mxGraphModel>
  </diagram>
</mxfile>
